<svg width="58" height="58" viewBox="0 0 58 58" fill="none" xmlns="http://www.w3.org/2000/svg">
<circle cx="28.8" cy="29.1999" r="28.8" fill="#DC8962"/>
<path d="M37.5712 22.058H36.4219V20.358C36.4218 16.4108 33.2898 13.2 29.44 13.2C25.5902 13.2 22.4581 16.4112 22.4581 20.358V22.058H21.3088C19.4402 22.058 17.9199 23.6168 17.9199 25.5325V41.7254C17.9199 43.6417 19.4402 45.2 21.3088 45.2H37.571C39.4396 45.2 40.9599 43.6415 40.9599 41.7254V25.5325C40.9599 23.6168 39.4396 22.058 37.5712 22.058ZM24.6689 20.358C24.6689 17.6609 26.8091 15.4667 29.44 15.4667C32.0706 15.4667 34.2107 17.6609 34.2107 20.358V22.058H24.6689V20.358ZM38.7492 41.7254C38.7492 42.3919 38.2205 42.9332 37.5712 42.9332H21.3087C20.6591 42.9332 20.1307 42.3914 20.1307 41.7254V25.5325C20.1307 24.8665 20.6591 24.3248 21.3087 24.3248H22.4579V25.9142C22.1027 26.2315 21.8736 26.6935 21.8736 27.2149C21.8736 28.1718 22.6301 28.9478 23.5634 28.9478C24.4965 28.9478 25.2533 28.1718 25.2533 27.2149C25.2533 26.694 25.024 26.2319 24.6689 25.9142V24.3248H34.2107V25.9142C33.8555 26.2315 33.6264 26.6935 33.6264 27.2149C33.6264 28.1718 34.3829 28.9478 35.3163 28.9478C36.2496 28.9478 37.0061 28.1718 37.0061 27.2149C37.0061 26.694 36.7769 26.2315 36.4218 25.9142V24.3248H37.571C38.2206 24.3248 38.749 24.8665 38.749 25.5325V41.7254H38.7492Z" fill="#FAF1E9"/>
</svg>
