<svg width="170" height="63" viewBox="0 0 170 63" fill="none" xmlns="http://www.w3.org/2000/svg">
<path d="M27.5407 50.2584C26.5113 53.477 21.735 56.0253 17.7981 55.2549C15.6604 54.8355 13.3279 54.5984 11.7559 52.6108C12.6602 51.9361 13.4485 52.278 14.1858 52.4695C15.09 52.702 15.9664 52.784 16.8614 52.5014C17.9882 52.1458 19.2403 51.9224 19.1985 50.3542C19.1568 48.8999 17.9697 48.8042 16.931 48.5079C11.3015 46.9031 8.64441 42.0435 10.2164 36.4498C10.7914 34.3983 11.5194 33.4866 13.7731 34.7949C16.5136 36.386 19.3794 36.7051 22.1941 34.6992C23.8913 33.4866 24.6518 32.0186 23.6502 30.1085C22.8201 28.522 22.8387 26.9675 23.6084 25.4859C25.2871 22.2537 24.8512 19.222 22.7274 16.4503C21.4568 14.7863 21.6377 13.519 22.9407 12.0282C24.3318 10.4463 24.8837 8.42222 25.4818 6.45281C25.6627 5.85105 25.8574 5.18091 25.2453 4.73414C24.7306 4.36032 24.1417 4.67032 23.7522 5.01223C21.6237 6.8859 18.8276 8.05296 17.6219 10.9113C16.9634 12.475 12.4144 12.6482 11.9414 11.0937C10.7358 7.16399 7.47585 5.41796 4.35042 3.44856C3.81252 3.11121 3.34417 2.64165 2.7738 2.40003C1.95302 2.05812 1.73972 0.535477 0.700999 1.01415C-0.38409 1.51562 0.0935345 2.80576 0.172366 3.70385C0.552611 8.08031 1.04415 12.4613 4.7724 15.5841C5.36132 16.0765 5.51898 16.5141 5.20366 17.1843C4.11857 19.4728 4.40143 21.9026 4.47563 24.3051C4.66111 30.1358 4.13712 35.7888 1.98085 41.3642C-0.569576 47.9745 1.54032 55.2367 6.58552 59.4216C10.963 63.0505 19.7272 63.9258 24.8605 61.268C28.0786 59.5994 29.7944 56.9143 30.4528 53.477C31.0186 50.5228 30.6198 50.067 27.5639 50.2402C27.5686 50.2356 27.5407 50.2584 27.5407 50.2584Z" fill="#FFCD74"/>
<path d="M28.0966 42.2442C28.7319 39.9876 27.2759 36.7691 29.4275 34.8042C29.9098 34.3666 30.4801 32.6798 29.3533 32.8895C28.6902 33.0126 27.9529 33.35 27.3501 33.8013C25.8384 34.9273 24.3266 35.8801 22.393 36.3406C21.3496 36.5867 20.6169 37.535 20.3202 38.6473C20.0048 39.8144 19.402 40.7261 18.2335 41.2823C15.9937 42.3491 17.0371 43.5253 18.303 44.4644C21.2337 46.6435 24.7162 45.9825 27.939 42.7411C27.99 42.5725 28.041 42.4083 28.0966 42.2442Z" fill="#FFCD74"/>
<path d="M28.0969 42.2441C28.0413 42.4083 27.9903 42.5724 27.9346 42.7365C28.2778 45.2621 26.2189 46.1966 24.6562 47.4184C23.6128 48.2299 21.3916 48.5216 22.2495 50.2494C23.0842 51.9316 25.041 51.2204 26.5806 50.7281C26.9144 50.6187 27.2205 50.4181 27.5405 50.2585C27.5405 50.2585 27.5683 50.2312 27.5683 50.2357C29.2794 48.6721 30.1604 46.7984 30.0909 44.4415C30.0491 43.0419 29.5298 42.308 28.0969 42.2441Z" fill="#FFCD74"/>
<path d="M41.7096 51.1726C41.5282 51.3617 41.4348 51.6426 41.4348 52.0207V52.7284H43.3196V53.4145H41.4568V58.741H40.6326V53.4145H39.5391V52.7284H40.6326V51.9829C40.6326 51.4319 40.7919 50.9997 41.1161 50.681C41.4403 50.3623 41.8909 50.2002 42.4844 50.2002C42.7152 50.2002 42.9405 50.2326 43.1603 50.2974C43.3746 50.3623 43.5614 50.4541 43.7043 50.5783L43.424 51.1834C43.1822 50.9835 42.88 50.8863 42.5173 50.8863C42.1602 50.8863 41.8909 50.9835 41.7096 51.1726Z" fill="#FFCD74"/>
<path d="M45.3522 58.4006C44.8796 58.1359 44.506 57.7739 44.2367 57.3093C43.9675 56.8448 43.8301 56.3207 43.8301 55.7319C43.8301 55.1431 43.9675 54.6191 44.2367 54.1545C44.506 53.6899 44.8796 53.3279 45.3522 53.0686C45.8248 52.8093 46.3578 52.6797 46.9457 52.6797C47.5337 52.6797 48.0667 52.8093 48.5393 53.0686C49.0118 53.3279 49.38 53.6899 49.6492 54.1545C49.9185 54.6191 50.0504 55.1431 50.0504 55.7319C50.0504 56.3207 49.9185 56.8448 49.6492 57.3093C49.38 57.7739 49.0118 58.1413 48.5393 58.4006C48.0667 58.6653 47.5337 58.7949 46.9457 58.7949C46.3578 58.7949 45.8248 58.6653 45.3522 58.4006ZM48.1162 57.7847C48.4623 57.5903 48.7316 57.3147 48.9239 56.9582C49.1162 56.6017 49.2151 56.1911 49.2151 55.7373C49.2151 55.2781 49.1162 54.873 48.9239 54.5164C48.7316 54.1599 48.4623 53.8844 48.1162 53.6899C47.77 53.4954 47.3798 53.3982 46.9457 53.3982C46.5116 53.3982 46.1215 53.4954 45.7753 53.6899C45.4291 53.8844 45.1599 54.1599 44.962 54.5164C44.7642 54.873 44.6653 55.2835 44.6653 55.7373C44.6653 56.1965 44.7642 56.6017 44.962 56.9582C45.1599 57.3147 45.4291 57.5903 45.7753 57.7847C46.1215 57.9792 46.5116 58.0765 46.9457 58.0765C47.3798 58.0765 47.77 57.9792 48.1162 57.7847Z" fill="#FFCD74"/>
<path d="M53.5114 52.9876C53.8961 52.7823 54.3686 52.6797 54.9346 52.6797V53.4684L54.7368 53.4576C54.0939 53.4576 53.5883 53.6521 53.2257 54.041C52.863 54.43 52.6817 54.9756 52.6817 55.6779V58.7409H51.8574V52.7283H52.6487V53.906C52.841 53.5008 53.1268 53.1929 53.5114 52.9876Z" fill="#FFCD74"/>
<path d="M64.7439 53.3388C65.2 53.7763 65.4253 54.4138 65.4253 55.2565V58.7463H64.6011V55.3376C64.6011 54.7109 64.4417 54.2355 64.123 53.906C63.8043 53.5764 63.3537 53.4144 62.7603 53.4144C62.1009 53.4144 61.5788 53.6089 61.1942 53.9924C60.8095 54.376 60.6172 54.9108 60.6172 55.5861V58.7409H59.793V52.7283H60.5842V53.8358C60.8095 53.4684 61.1228 53.1875 61.5184 52.9822C61.9195 52.7823 62.3811 52.6797 62.9086 52.6797C63.6834 52.6797 64.2934 52.9012 64.7439 53.3388Z" fill="#FFCD74"/>
<path d="M73.1354 55.9858H68.0196C68.0635 56.6125 68.3108 57.1149 68.7504 57.4984C69.19 57.882 69.7505 58.0765 70.4264 58.0765C70.8055 58.0765 71.1572 58.0117 71.4704 57.8766C71.7891 57.7415 72.0639 57.5471 72.2946 57.2878L72.7617 57.8118C72.4925 58.1305 72.1518 58.3736 71.7452 58.5411C71.3385 58.7085 70.8879 58.7896 70.4044 58.7896C69.7779 58.7896 69.2175 58.6599 68.7339 58.3952C68.2503 58.1305 67.8712 57.7686 67.6019 57.304C67.3327 56.8394 67.1953 56.3154 67.1953 55.7265C67.1953 55.1377 67.3272 54.6137 67.5855 54.1491C67.8437 53.6845 68.2009 53.3226 68.657 53.0633C69.1131 52.804 69.6186 52.6743 70.1846 52.6743C70.7506 52.6743 71.2561 52.804 71.7067 53.0633C72.1573 53.3226 72.509 53.6845 72.7672 54.1437C73.0255 54.6029 73.1519 55.1323 73.1519 55.7265L73.1354 55.9858ZM68.7009 53.933C68.2998 54.3004 68.0745 54.7866 68.0196 55.3808H72.3551C72.3001 54.7866 72.0748 54.3058 71.6737 53.933C71.2726 53.5657 70.778 53.3766 70.1791 53.3766C69.5966 53.3766 69.1021 53.5657 68.7009 53.933Z" fill="#FFCD74"/>
<path d="M83.8112 52.7285L81.4978 58.7411H80.7175L78.7888 53.8144L76.86 58.7411H76.0797L73.7773 52.7285H74.5686L76.4864 57.839L78.4536 52.7285H79.1624L81.1186 57.839L83.0584 52.7285H83.8112Z" fill="#FFCD74"/>
<path d="M89.8827 53.0635C90.3497 53.3174 90.7124 53.6793 90.9762 54.1439C91.2399 54.6085 91.3718 55.1379 91.3718 55.7322C91.3718 56.3264 91.2399 56.8558 90.9762 57.3204C90.7124 57.785 90.3497 58.1469 89.8827 58.4062C89.4156 58.6655 88.8991 58.7952 88.3221 58.7952C87.8111 58.7952 87.3495 58.6871 86.9428 58.4765C86.5362 58.2658 86.2065 57.9524 85.9592 57.5527V58.7412H85.168V50.2598H85.9922V53.8738C86.2505 53.4849 86.5747 53.1877 86.9758 52.9879C87.377 52.788 87.822 52.6853 88.3166 52.6853C88.8991 52.6799 89.4156 52.8096 89.8827 53.0635ZM89.4266 57.785C89.7783 57.5905 90.0475 57.315 90.2453 56.9584C90.4432 56.6019 90.5421 56.1913 90.5421 55.7376C90.5421 55.2784 90.4432 54.8732 90.2453 54.5167C90.0475 54.1601 89.7728 53.8846 89.4266 53.6901C89.0749 53.4957 88.6903 53.3984 88.2616 53.3984C87.8275 53.3984 87.4374 53.4957 87.0912 53.6901C86.745 53.8846 86.4758 54.1601 86.278 54.5167C86.0801 54.8732 85.9812 55.2838 85.9812 55.7376C85.9812 56.1967 86.0801 56.6019 86.278 56.9584C86.4758 57.315 86.745 57.5905 87.0912 57.785C87.4374 57.9795 87.8275 58.0767 88.2616 58.0767C88.6903 58.0767 89.0804 57.9795 89.4266 57.785Z" fill="#FFCD74"/>
<path d="M94.0807 58.4006C93.6081 58.1359 93.2345 57.7739 92.9652 57.3093C92.696 56.8448 92.5586 56.3207 92.5586 55.7319C92.5586 55.1431 92.696 54.6191 92.9652 54.1545C93.2345 53.6899 93.6081 53.3279 94.0807 53.0686C94.5533 52.8093 95.0863 52.6797 95.6742 52.6797C96.2622 52.6797 96.7952 52.8093 97.2678 53.0686C97.7404 53.3279 98.1085 53.6899 98.3778 54.1545C98.647 54.6191 98.7789 55.1431 98.7789 55.7319C98.7789 56.3207 98.647 56.8448 98.3778 57.3093C98.1085 57.7739 97.7404 58.1413 97.2678 58.4006C96.7952 58.6653 96.2622 58.7949 95.6742 58.7949C95.0863 58.7949 94.5533 58.6653 94.0807 58.4006ZM96.8447 57.7847C97.1909 57.5903 97.4601 57.3147 97.6524 56.9582C97.8448 56.6017 97.9437 56.1911 97.9437 55.7373C97.9437 55.2781 97.8448 54.873 97.6524 54.5164C97.4601 54.1599 97.1909 53.8844 96.8447 53.6899C96.4985 53.4954 96.1083 53.3982 95.6742 53.3982C95.2401 53.3982 94.85 53.4954 94.5038 53.6899C94.1576 53.8844 93.8884 54.1599 93.6906 54.5164C93.4927 54.873 93.3938 55.2835 93.3938 55.7373C93.3938 56.1965 93.4927 56.6017 93.6906 56.9582C93.8884 57.3147 94.1576 57.5903 94.5038 57.7847C94.85 57.9792 95.2401 58.0765 95.6742 58.0765C96.1083 58.0765 96.4985 57.9792 96.8447 57.7847Z" fill="#FFCD74"/>
<path d="M102.242 52.9876C102.627 52.7823 103.099 52.6797 103.665 52.6797V53.4684L103.467 53.4576C102.824 53.4576 102.319 53.6521 101.956 54.041C101.593 54.43 101.412 54.9756 101.412 55.6779V58.7409H100.588V52.7283H101.379V53.906C101.566 53.5008 101.857 53.1929 102.242 52.9876Z" fill="#FFCD74"/>
<path d="M110.221 53.3388C110.677 53.7763 110.902 54.4138 110.902 55.2565V58.7463H110.078V55.3376C110.078 54.7109 109.918 54.2355 109.6 53.906C109.281 53.5764 108.83 53.4144 108.237 53.4144C107.577 53.4144 107.055 53.6089 106.671 53.9924C106.286 54.376 106.094 54.9108 106.094 55.5861V58.7409H105.27V52.7283H106.061V53.8358C106.286 53.4684 106.599 53.1875 106.995 52.9822C107.396 52.7823 107.858 52.6797 108.385 52.6797C109.154 52.6797 109.764 52.9012 110.221 53.3388Z" fill="#FFCD74"/>
<path d="M113.474 58.5843C113.018 58.4438 112.666 58.2656 112.408 58.0549L112.782 57.412C113.04 57.6119 113.359 57.774 113.749 57.8982C114.139 58.0225 114.54 58.0873 114.958 58.0873C115.518 58.0873 115.93 58.0008 116.194 57.828C116.464 57.6551 116.595 57.4174 116.595 57.1041C116.595 56.8826 116.524 56.7097 116.376 56.5855C116.227 56.4612 116.04 56.364 115.815 56.2992C115.59 56.2343 115.293 56.1695 114.919 56.1101C114.425 56.0183 114.024 55.9264 113.722 55.8292C113.419 55.7319 113.161 55.5699 112.947 55.343C112.732 55.1161 112.628 54.7974 112.628 54.3922C112.628 53.8898 112.842 53.4792 113.265 53.1551C113.694 52.8364 114.287 52.6743 115.046 52.6743C115.441 52.6743 115.837 52.7283 116.233 52.831C116.628 52.9336 116.953 53.0687 117.211 53.2361L116.848 53.8898C116.343 53.5495 115.744 53.3766 115.046 53.3766C114.518 53.3766 114.123 53.4684 113.853 53.6521C113.584 53.8358 113.452 54.0735 113.452 54.3706C113.452 54.5975 113.529 54.7812 113.678 54.9216C113.831 55.0567 114.018 55.1593 114.244 55.2241C114.469 55.289 114.777 55.3538 115.172 55.424C115.661 55.5158 116.051 55.6077 116.348 55.6995C116.645 55.7914 116.892 55.948 117.106 56.1695C117.315 56.391 117.42 56.6935 117.42 57.0825C117.42 57.6065 117.194 58.0279 116.749 58.3358C116.304 58.6437 115.683 58.8004 114.892 58.8004C114.403 58.795 113.93 58.7301 113.474 58.5843Z" fill="#FFCD74"/>
<path d="M128.228 58.8655L127.101 57.7202C126.409 58.4441 125.502 58.806 124.381 58.806C123.854 58.806 123.381 58.7196 122.969 58.5467C122.551 58.3739 122.232 58.1362 121.996 57.8282C121.765 57.5203 121.645 57.1692 121.645 56.7694C121.645 56.2886 121.798 55.8565 122.112 55.4783C122.419 55.1002 122.947 54.695 123.694 54.279C123.304 53.8847 123.04 53.5443 122.892 53.2688C122.744 52.9879 122.672 52.6962 122.672 52.3829C122.672 51.8697 122.859 51.4591 123.233 51.1458C123.606 50.8324 124.106 50.6758 124.733 50.6758C125.315 50.6758 125.777 50.8162 126.117 51.0971C126.458 51.3781 126.628 51.767 126.628 52.264C126.628 52.6584 126.491 53.0149 126.222 53.3336C125.953 53.6524 125.48 53.9981 124.815 54.3817L127.046 56.6452C127.293 56.213 127.475 55.6944 127.59 55.1002L128.266 55.3054C128.118 56.0239 127.876 56.6344 127.546 57.1476L128.711 58.3252L128.228 58.8655ZM126.612 57.234L124.156 54.7544C123.513 55.111 123.068 55.4351 122.826 55.7268C122.584 56.0185 122.458 56.3426 122.458 56.6992C122.458 57.1314 122.639 57.4825 122.996 57.7472C123.359 58.0119 123.832 58.1416 124.419 58.1416C125.321 58.1362 126.051 57.8336 126.612 57.234ZM123.777 51.5833C123.546 51.7832 123.436 52.0425 123.436 52.3721C123.436 52.6098 123.496 52.8312 123.623 53.0473C123.749 53.2634 123.991 53.5497 124.354 53.9171C124.942 53.5821 125.348 53.2958 125.573 53.0581C125.799 52.8204 125.909 52.5611 125.909 52.2802C125.909 51.9777 125.804 51.7346 125.595 51.5563C125.387 51.3781 125.095 51.2862 124.722 51.2862C124.321 51.2862 124.007 51.3835 123.777 51.5833Z" fill="#FFCD74"/>
<path d="M142.722 53.3334C143.162 53.7656 143.381 54.4084 143.381 55.2565V58.7464H142.557V55.3376C142.557 54.7109 142.403 54.2355 142.096 53.906C141.788 53.5765 141.359 53.4144 140.799 53.4144C140.161 53.4144 139.661 53.6089 139.299 53.9924C138.936 54.376 138.755 54.9108 138.755 55.5861V58.7409H137.93V55.3322C137.93 54.7055 137.776 54.2301 137.469 53.9006C137.161 53.5711 136.727 53.409 136.161 53.409C135.535 53.409 135.035 53.6035 134.666 53.987C134.298 54.3706 134.111 54.9054 134.111 55.5807V58.7355H133.287V52.7229H134.078V53.8196C134.293 53.4522 134.6 53.1713 134.985 52.9714C135.375 52.7716 135.82 52.6743 136.32 52.6743C136.831 52.6743 137.276 52.7824 137.65 52.993C138.024 53.2091 138.31 53.5225 138.491 53.9438C138.716 53.5495 139.04 53.2361 139.463 53.0147C139.887 52.7878 140.37 52.6797 140.909 52.6797C141.678 52.6797 142.282 52.8958 142.722 53.3334Z" fill="#FFCD74"/>
<path d="M146.669 58.4006C146.196 58.1359 145.822 57.7739 145.553 57.3093C145.284 56.8448 145.146 56.3207 145.146 55.7319C145.146 55.1431 145.284 54.6191 145.553 54.1545C145.822 53.6899 146.196 53.3279 146.669 53.0686C147.141 52.8093 147.674 52.6797 148.262 52.6797C148.85 52.6797 149.383 52.8093 149.856 53.0686C150.328 53.3279 150.696 53.6899 150.966 54.1545C151.235 54.6191 151.367 55.1431 151.367 55.7319C151.367 56.3207 151.235 56.8448 150.966 57.3093C150.696 57.7739 150.328 58.1413 149.856 58.4006C149.383 58.6653 148.85 58.7949 148.262 58.7949C147.674 58.7949 147.141 58.6653 146.669 58.4006ZM149.433 57.7847C149.779 57.5903 150.048 57.3147 150.24 56.9582C150.433 56.6017 150.532 56.1911 150.532 55.7373C150.532 55.2781 150.433 54.873 150.24 54.5164C150.048 54.1599 149.779 53.8844 149.433 53.6899C149.086 53.4954 148.696 53.3982 148.262 53.3982C147.828 53.3982 147.438 53.4954 147.092 53.6899C146.746 53.8844 146.476 54.1599 146.278 54.5164C146.081 54.873 145.982 55.2835 145.982 55.7373C145.982 56.1965 146.081 56.6017 146.278 56.9582C146.476 57.3147 146.746 57.5903 147.092 57.7847C147.438 57.9792 147.828 58.0765 148.262 58.0765C148.696 58.0765 149.086 57.9792 149.433 57.7847Z" fill="#FFCD74"/>
<path d="M162.609 53.3334C163.048 53.7656 163.268 54.4084 163.268 55.2565V58.7464H162.444V55.3376C162.444 54.7109 162.29 54.2355 161.982 53.906C161.675 53.5765 161.246 53.4144 160.685 53.4144C160.048 53.4144 159.548 53.6089 159.185 53.9924C158.823 54.376 158.641 54.9108 158.641 55.5861V58.7409H157.817V55.3322C157.817 54.7055 157.663 54.2301 157.356 53.9006C157.048 53.5711 156.614 53.409 156.048 53.409C155.421 53.409 154.921 53.6035 154.553 53.987C154.185 54.3706 153.998 54.9054 153.998 55.5807V58.7355H153.174V52.7229H153.965V53.8196C154.179 53.4522 154.487 53.1713 154.872 52.9714C155.262 52.7716 155.707 52.6743 156.207 52.6743C156.718 52.6743 157.163 52.7824 157.537 52.993C157.911 53.2091 158.196 53.5225 158.378 53.9438C158.603 53.5495 158.927 53.2361 159.35 53.0147C159.773 52.7878 160.257 52.6797 160.795 52.6797C161.57 52.6797 162.169 52.8958 162.609 53.3334Z" fill="#FFCD74"/>
<path d="M165.839 58.5843C165.383 58.4438 165.032 58.2656 164.773 58.0549L165.147 57.412C165.405 57.6119 165.724 57.774 166.114 57.8982C166.504 58.0225 166.905 58.0873 167.323 58.0873C167.884 58.0873 168.296 58.0008 168.559 57.828C168.829 57.6551 168.961 57.4174 168.961 57.1041C168.961 56.8826 168.889 56.7097 168.741 56.5855C168.592 56.4612 168.406 56.364 168.18 56.2992C167.955 56.2343 167.658 56.1695 167.285 56.1101C166.79 56.0183 166.389 55.9264 166.087 55.8292C165.785 55.7319 165.526 55.5699 165.312 55.343C165.098 55.1161 164.993 54.7974 164.993 54.3922C164.993 53.8898 165.208 53.4792 165.631 53.1551C166.059 52.8364 166.653 52.6743 167.411 52.6743C167.807 52.6743 168.202 52.7283 168.598 52.831C168.994 52.9336 169.318 53.0687 169.576 53.2361L169.213 53.8898C168.708 53.5495 168.109 53.3766 167.411 53.3766C166.884 53.3766 166.488 53.4684 166.219 53.6521C165.949 53.8358 165.817 54.0735 165.817 54.3706C165.817 54.5975 165.894 54.7812 166.043 54.9216C166.197 55.0567 166.383 55.1593 166.609 55.2241C166.834 55.289 167.142 55.3538 167.537 55.424C168.026 55.5158 168.417 55.6077 168.713 55.6995C169.01 55.7914 169.257 55.948 169.472 56.1695C169.68 56.391 169.785 56.6935 169.785 57.0825C169.785 57.6065 169.56 58.0279 169.114 58.3358C168.669 58.6437 168.048 58.8004 167.257 58.8004C166.768 58.795 166.296 58.7301 165.839 58.5843Z" fill="#FFCD74"/>
<path d="M44.2432 29.6883H45.8477L50.6064 23.7784H56.1838L49.5239 31.5899L56.2332 40.3846H50.6393L45.7763 33.6643H44.2432V40.3846H39.6934V15.7075H44.2432V29.6883Z" fill="#DC8962"/>
<path d="M73.6468 32.0545C73.6468 32.5677 73.6138 33.1836 73.5588 33.5617H61.5853C62.0743 35.9603 63.7833 37.0083 65.9263 37.0083C67.388 37.0083 68.976 36.4249 70.1959 35.4147L72.861 38.294C70.9432 40.0227 68.5035 40.8114 65.6626 40.8114C60.4863 40.8114 56.8926 37.3487 56.8926 32.1248C56.8926 26.9009 60.3764 23.3355 65.4318 23.3355C70.3003 23.3301 73.6303 26.8793 73.6468 32.0545ZM61.6018 30.5095H69.0804C68.6628 28.3865 67.355 27.1872 65.4043 27.1872C63.2558 27.1872 62.0029 28.4567 61.6018 30.5095Z" fill="#DC8962"/>
<path d="M93.3239 29.8072V40.3847H88.774V31.2496C88.774 28.8511 87.5541 27.5329 85.477 27.5329C83.5263 27.5329 81.9053 28.7862 81.9053 31.2874V40.3847H77.3555V23.7784H81.7844V25.734C82.9878 23.9675 84.8341 23.3355 86.7519 23.3355C90.5874 23.3301 93.3239 25.9555 93.3239 29.8072Z" fill="#DC8962"/>
<path d="M109.917 25.626V23.7731H114.379V39.0071C114.379 44.3391 110.84 47.5588 105.263 47.5588C102.598 47.5588 99.7734 46.8727 97.8721 45.5546L99.4932 41.9027C101.186 42.9993 103.048 43.599 105.071 43.599C107.895 43.599 109.884 42.0594 109.884 39.1962V38.0294C108.736 39.4177 107.027 40.2767 104.691 40.2767C100.576 40.2767 96.916 36.9003 96.916 31.8115C96.916 26.7064 100.576 23.3301 104.691 23.3301C107.038 23.3301 108.763 24.2214 109.917 25.626ZM101.587 31.8115C101.587 34.21 103.241 36.1656 105.84 36.1656C108.368 36.1656 110.076 34.2803 110.076 31.8115C110.076 29.3265 108.368 27.4411 105.84 27.4411C103.241 27.4465 101.587 29.3967 101.587 31.8115Z" fill="#DC8962"/>
<path d="M134.997 33.3023C134.997 38.5478 131.233 40.8059 127.012 40.8059C122.776 40.8059 119.012 38.5424 119.012 33.3023V23.7783H123.562V32.9134C123.562 35.5712 125.045 36.6517 127.012 36.6517C128.963 36.6517 130.463 35.5712 130.463 32.9134V23.7783H134.997V33.3023Z" fill="#DC8962"/>
<path d="M151.176 23.692L150.495 28.1326C149.747 27.8085 148.665 27.6032 147.742 27.6032C145.632 27.6032 144.187 28.8727 144.187 31.3415V40.3847H139.637V23.7785H144.049V25.5936C145.11 24.0324 146.736 23.3301 148.808 23.3301C149.78 23.3301 150.55 23.4705 151.176 23.692Z" fill="#DC8962"/>
<path d="M170.001 33.3023C170.001 38.5478 166.236 40.8059 162.016 40.8059C157.78 40.8059 154.016 38.5424 154.016 33.3023V23.7783H158.565V32.9134C158.565 35.5712 160.049 36.6517 162.016 36.6517C163.967 36.6517 165.467 35.5712 165.467 32.9134V23.7783H170.001V33.3023Z" fill="#DC8962"/>
</svg>
