<svg width="24" height="24" viewBox="0 0 24 24" fill="none" xmlns="http://www.w3.org/2000/svg">
<path fill-rule="evenodd" clip-rule="evenodd" d="M19.9711 3.81726C18.8928 2.7328 17.6098 1.87291 16.1966 1.2874C14.7833 0.70189 13.2678 0.402402 11.7378 0.406287C5.32242 0.406287 0.0998359 5.62315 0.0972428 12.0357C0.0972428 14.0852 0.632725 16.0854 1.65053 17.8498L0 23.875L6.17037 22.257C7.87717 23.1853 9.78936 23.6721 11.7327 23.673H11.7378C18.152 23.673 23.3746 18.4561 23.3771 12.0435C23.3815 10.5155 23.0828 9.00173 22.4982 7.58975C21.9135 6.17778 21.0546 4.89558 19.9711 3.81726ZM11.7378 21.7103H11.734C10.0011 21.7105 8.30016 21.2447 6.80958 20.3617L6.45691 20.1519L2.7954 21.1118L3.77172 17.5454L3.54223 17.18C2.57341 15.639 2.06055 13.8556 2.06284 12.0357C2.06543 6.70616 6.40505 2.37022 11.7417 2.37022C13.0127 2.3674 14.2716 2.61647 15.4456 3.10301C16.6196 3.58955 17.6853 4.3039 18.5811 5.20471C19.4818 6.10123 20.1956 7.16722 20.6814 8.34105C21.1672 9.51488 21.4154 10.7733 21.4115 12.0435C21.409 17.3731 17.0693 21.7103 11.7378 21.7103ZM17.0447 14.4699C16.753 14.3235 15.3242 13.6214 15.0571 13.5242C14.7913 13.4271 14.5981 13.3791 14.4036 13.6693C14.2091 13.9595 13.6516 14.6137 13.4817 14.808C13.3119 15.0024 13.142 15.0257 12.8516 14.8806C12.5612 14.7355 11.6237 14.4285 10.5126 13.4387C9.64777 12.6679 9.06431 11.717 8.89446 11.4256C8.72461 11.1341 8.87631 10.9773 9.02283 10.8322C9.15378 10.7027 9.31326 10.4928 9.45847 10.3231C9.60369 10.1534 9.65166 10.0329 9.7489 9.83861C9.84615 9.64429 9.79817 9.47459 9.72427 9.32949C9.65166 9.1831 9.0695 7.7529 8.82704 7.17124C8.59236 6.60771 8.3525 6.68285 8.17357 6.67507C7.98826 6.6675 7.80281 6.66404 7.61734 6.66471C7.46987 6.66846 7.32476 6.70262 7.19111 6.76504C7.05747 6.82746 6.93817 6.91679 6.8407 7.02744C6.57361 7.31892 5.82289 8.02107 5.82289 9.45127C5.82289 10.8815 6.86533 12.2637 7.01055 12.4581C7.15577 12.6524 9.06172 15.5866 11.979 16.8458C12.674 17.1451 13.2159 17.3238 13.6373 17.4586C14.3336 17.6801 14.9676 17.6477 15.4694 17.5739C16.0282 17.491 17.1899 16.8717 17.4324 16.1929C17.6748 15.5141 17.6748 14.9324 17.6022 14.8106C17.5296 14.6889 17.3338 14.615 17.0447 14.4699Z" fill="#FAF1E9"/>
</svg>
