<svg width="29" height="30" viewBox="0 0 29 30" fill="none" xmlns="http://www.w3.org/2000/svg">
<path d="M14.4 3.45641C18.2475 3.45641 18.7031 3.47328 20.2163 3.54078C21.6225 3.60266 22.3819 3.83891 22.8881 4.03578C23.5575 4.29453 24.0413 4.60953 24.5419 5.11016C25.0481 5.61641 25.3575 6.09453 25.6163 6.76391C25.8131 7.27016 26.0494 8.03516 26.1113 9.43578C26.1788 10.9545 26.1956 11.4102 26.1956 15.252C26.1956 19.0995 26.1788 19.5552 26.1113 21.0683C26.0494 22.4745 25.8131 23.2339 25.6163 23.7402C25.3575 24.4095 25.0425 24.8933 24.5419 25.3939C24.0356 25.9002 23.5575 26.2095 22.8881 26.4683C22.3819 26.6652 21.6169 26.9014 20.2163 26.9633C18.6975 27.0308 18.2419 27.0477 14.4 27.0477C10.5525 27.0477 10.0969 27.0308 8.58375 26.9633C7.1775 26.9014 6.41813 26.6652 5.91188 26.4683C5.2425 26.2095 4.75875 25.8945 4.25813 25.3939C3.75188 24.8877 3.4425 24.4095 3.18375 23.7402C2.98688 23.2339 2.75063 22.4689 2.68875 21.0683C2.62125 19.5495 2.60438 19.0939 2.60438 15.252C2.60438 11.4045 2.62125 10.9489 2.68875 9.43578C2.75063 8.02953 2.98688 7.27016 3.18375 6.76391C3.4425 6.09453 3.7575 5.61078 4.25813 5.11016C4.76438 4.60391 5.2425 4.29453 5.91188 4.03578C6.41813 3.83891 7.18313 3.60266 8.58375 3.54078C10.0969 3.47328 10.5525 3.45641 14.4 3.45641ZM14.4 0.863281C10.4906 0.863281 10.0013 0.880156 8.46563 0.947656C6.93563 1.01516 5.88375 1.26266 4.9725 1.61703C4.02188 1.98828 3.2175 2.47766 2.41875 3.28203C1.61438 4.08078 1.125 4.88516 0.75375 5.83016C0.399375 6.74703 0.151875 7.79328 0.084375 9.32328C0.016875 10.8645 0 11.3539 0 15.2633C0 19.1727 0.016875 19.662 0.084375 21.1977C0.151875 22.7277 0.399375 23.7795 0.75375 24.6908C1.125 25.6414 1.61438 26.4458 2.41875 27.2445C3.2175 28.0433 4.02188 28.5383 4.96688 28.9039C5.88375 29.2583 6.93 29.5058 8.46 29.5733C9.99563 29.6408 10.485 29.6577 14.3944 29.6577C18.3038 29.6577 18.7931 29.6408 20.3288 29.5733C21.8588 29.5058 22.9106 29.2583 23.8219 28.9039C24.7669 28.5383 25.5713 28.0433 26.37 27.2445C27.1688 26.4458 27.6638 25.6414 28.0294 24.6964C28.3838 23.7795 28.6313 22.7333 28.6988 21.2033C28.7663 19.6677 28.7831 19.1783 28.7831 15.2689C28.7831 11.3595 28.7663 10.8702 28.6988 9.33453C28.6313 7.80453 28.3838 6.75266 28.0294 5.84141C27.675 4.88516 27.1856 4.08078 26.3813 3.28203C25.5825 2.48328 24.7781 1.98828 23.8331 1.62266C22.9163 1.26828 21.87 1.02078 20.34 0.953281C18.7988 0.880156 18.3094 0.863281 14.4 0.863281Z" fill="#DC8962"/>
<path d="M14.4008 7.86633C10.317 7.86633 7.00391 11.1795 7.00391 15.2632C7.00391 19.347 10.317 22.6601 14.4008 22.6601C18.4845 22.6601 21.7977 19.347 21.7977 15.2632C21.7977 11.1795 18.4845 7.86633 14.4008 7.86633ZM14.4008 20.0613C11.7514 20.0613 9.60266 17.9126 9.60266 15.2632C9.60266 12.6138 11.7514 10.4651 14.4008 10.4651C17.0502 10.4651 19.1989 12.6138 19.1989 15.2632C19.1989 17.9126 17.0502 20.0613 14.4008 20.0613Z" fill="#DC8962"/>
<path d="M23.8161 7.57368C23.8161 8.52993 23.0398 9.30055 22.0892 9.30055C21.1329 9.30055 20.3623 8.5243 20.3623 7.57368C20.3623 6.61743 21.1386 5.8468 22.0892 5.8468C23.0398 5.8468 23.8161 6.62305 23.8161 7.57368Z" fill="#DC8962"/>
</svg>
