<svg width="77" height="77" viewBox="0 0 77 77" fill="none" xmlns="http://www.w3.org/2000/svg">
<circle cx="38.5" cy="38.5" r="38.5" fill="#FAF1E9"/>
<path d="M35.9961 39.1436C35.7667 39.1434 35.5455 39.0718 35.3754 38.9426C35.2053 38.8134 35.0984 38.6359 35.0755 38.4444L34.8995 36.9553C34.8869 36.8538 34.8983 36.7512 34.933 36.6534C34.9677 36.5556 35.025 36.4644 35.1016 36.3852C35.2565 36.2252 35.4808 36.1233 35.7252 36.102C35.9696 36.0806 36.2141 36.1416 36.4049 36.2715C36.5957 36.4014 36.7172 36.5895 36.7426 36.7945L36.9186 38.2875C36.9314 38.3893 36.9202 38.4921 36.8854 38.5902C36.8507 38.6883 36.7932 38.7797 36.7163 38.8591C36.6394 38.9385 36.5445 39.0043 36.4371 39.0529C36.3297 39.1014 36.212 39.1317 36.0906 39.142C36.0592 39.1441 36.0276 39.1446 35.9961 39.1436Z" fill="#EDBDBA"/>
<path d="M39.2111 66.1533C38.9815 66.1533 38.7601 66.0817 38.5898 65.9526C38.4195 65.8234 38.3125 65.6458 38.2895 65.4541L37.1596 56.0477C36.9669 54.4281 36.7335 52.1295 36.489 49.7229C36.2278 47.1501 35.9536 44.4546 35.7054 42.3432C35.6933 42.2417 35.7051 42.1392 35.7401 42.0415C35.7752 41.9438 35.8329 41.8529 35.9099 41.7739C35.9868 41.6949 36.0816 41.6294 36.1888 41.5812C36.2959 41.5329 36.4134 41.5028 36.5344 41.4926C36.6554 41.4824 36.7776 41.4923 36.8941 41.5217C37.0106 41.5511 37.119 41.5995 37.2131 41.6641C37.3073 41.7286 37.3854 41.8081 37.443 41.898C37.5005 41.9878 37.5364 42.0863 37.5486 42.1878C37.7986 44.3054 38.0728 47.0087 38.3349 49.5893C38.5785 51.9866 38.811 54.2774 39.0027 55.89L39.212 57.6278C39.7344 53.259 40.4161 47.5168 41.0959 41.7451C41.4571 38.7 41.8081 35.6564 42.1323 32.7915C42.8649 26.4994 43.3734 21.8905 43.6041 19.4645C43.6717 18.7452 43.7495 17.8853 43.7495 17.6313C43.7495 16.6218 43.2713 15.6536 42.4202 14.9397C41.5691 14.2259 40.4147 13.8249 39.2111 13.8249C38.0074 13.8249 36.8531 14.2259 36.002 14.9397C35.1509 15.6536 34.6727 16.6218 34.6727 17.6313C34.6727 17.883 34.7505 18.7437 34.8181 19.4661C35.0182 21.5246 35.3627 24.7173 35.761 28.2231C35.8129 28.6892 35.887 29.6105 35.9648 30.5761C36.0574 31.69 36.15 32.8653 36.2176 33.4503C36.2422 33.6554 36.1686 33.8602 36.013 34.0198C35.8575 34.1794 35.6327 34.2807 35.3882 34.3013C35.1437 34.3219 34.8994 34.2601 34.7091 34.1297C34.5188 33.9992 34.3981 33.8107 34.3735 33.6056C34.3032 33.0129 34.2068 31.819 34.1161 30.6833C34.0401 29.734 33.9679 28.829 33.9169 28.3722C33.5177 24.8618 33.176 21.6614 32.9713 19.5943C32.8629 18.4291 32.8203 17.8853 32.8203 17.6351C32.8203 16.9313 32.9856 16.2343 33.3068 15.584C33.6279 14.9337 34.0987 14.3428 34.6921 13.8451C35.2856 13.3473 35.9901 12.9525 36.7654 12.6832C37.5408 12.4138 38.3718 12.2751 39.2111 12.2751C40.0503 12.2751 40.8814 12.4138 41.6567 12.6832C42.4321 12.9525 43.1366 13.3473 43.73 13.8451C44.3235 14.3428 44.7942 14.9337 45.1154 15.584C45.4366 16.2343 45.6019 16.9313 45.6019 17.6351C45.6019 17.8853 45.5593 18.4337 45.4509 19.5919C45.1582 22.6681 44.4876 28.5501 43.9764 32.9438C43.6522 35.8094 43.3003 38.8553 42.939 41.902C41.5497 53.7414 40.1327 65.4565 40.1327 65.4565C40.109 65.6477 40.0018 65.8247 39.8315 65.9534C39.6613 66.0821 39.4403 66.1533 39.2111 66.1533Z" fill="#EDBDBA"/>
<path d="M39.2104 22.2891C38.9647 22.2891 38.7292 22.2072 38.5555 22.0615C38.3818 21.9159 38.2842 21.7183 38.2842 21.5122V17.5396C38.2842 17.3336 38.3818 17.136 38.5555 16.9903C38.7292 16.8447 38.9647 16.7628 39.2104 16.7628C39.456 16.7628 39.6916 16.8447 39.8653 16.9903C40.039 17.136 40.1366 17.3336 40.1366 17.5396V21.5122C40.1366 21.7183 40.039 21.9159 39.8653 22.0615C39.6916 22.2072 39.456 22.2891 39.2104 22.2891Z" fill="#EDBDBA"/>
<path d="M34.8392 29.0762H31.6253C29.993 29.0762 28.4276 28.5323 27.2733 27.5643C26.1191 26.5962 25.4707 25.2833 25.4707 23.9142C25.4707 22.5452 26.1191 21.2323 27.2733 20.2642C28.4276 19.2962 29.993 18.7523 31.6253 18.7523H39.2201C39.4658 18.7523 39.7014 18.8342 39.875 18.9798C40.0487 19.1255 40.1463 19.3231 40.1463 19.5291C40.1463 19.7352 40.0487 19.9327 39.875 20.0784C39.7014 20.2241 39.4658 20.3059 39.2201 20.3059H31.6253C30.4843 20.3059 29.39 20.6861 28.5832 21.3628C27.7764 22.0395 27.3231 22.9573 27.3231 23.9142C27.3231 24.8712 27.7764 25.789 28.5832 26.4657C29.39 27.1424 30.4843 27.5225 31.6253 27.5225H34.8392C35.0848 27.5225 35.3204 27.6044 35.4941 27.75C35.6678 27.8957 35.7654 28.0933 35.7654 28.2993C35.7654 28.5054 35.6678 28.7029 35.4941 28.8486C35.3204 28.9943 35.0848 29.0762 34.8392 29.0762Z" fill="#EDBDBA"/>
<path d="M44.5268 20.3059C44.2811 20.3059 44.0456 20.224 43.8719 20.0784C43.6982 19.9327 43.6006 19.7351 43.6006 19.5291C43.6006 19.323 43.6982 19.1255 43.8719 18.9798C44.0456 18.8341 44.2811 18.7523 44.5268 18.7523C46.1867 18.7506 47.7781 18.1968 48.9519 17.2124C50.1257 16.2279 50.7859 14.8932 50.7879 13.501V12.5533C50.7879 12.3473 50.8855 12.1497 51.0592 12.004C51.2329 11.8583 51.4685 11.7765 51.7141 11.7765C51.9597 11.7765 52.1953 11.8583 52.369 12.004C52.5427 12.1497 52.6403 12.3473 52.6403 12.5533V13.501C52.6378 15.3051 51.7822 17.0348 50.2612 18.3105C48.7401 19.5862 46.6779 20.3038 44.5268 20.3059Z" fill="#EDBDBA"/>
<path d="M47.1852 42.6005H42.017C41.7714 42.6005 41.5358 42.5186 41.3621 42.373C41.1884 42.2273 41.0908 42.0297 41.0908 41.8237C41.0908 41.6176 41.1884 41.4201 41.3621 41.2744C41.5358 41.1287 41.7714 41.0469 42.017 41.0469H47.1852C48.3555 41.0452 49.4771 40.654 50.3037 39.9593C51.1304 39.2645 51.5944 38.323 51.5939 37.3415C51.5927 36.3611 51.1278 35.4212 50.3013 34.728C49.4748 34.0348 48.3541 33.6449 47.1852 33.6438H43.0544C42.8087 33.6438 42.5731 33.562 42.3994 33.4163C42.2257 33.2706 42.1282 33.073 42.1282 32.867C42.1282 32.661 42.2257 32.4634 42.3994 32.3177C42.5731 32.1721 42.8087 32.0902 43.0544 32.0902H47.1852C48.8452 32.0919 50.4366 32.6456 51.6103 33.6301C52.7841 34.6145 53.4444 35.9492 53.4463 37.3415C53.4466 38.735 52.7873 40.0716 51.6133 41.0576C50.4393 42.0437 48.8467 42.5986 47.1852 42.6005Z" fill="#EDBDBA"/>
<path d="M38.081 56.7461H31.8384C30.9882 56.7461 30.1463 56.6056 29.3608 56.3327C28.5754 56.0598 27.8617 55.6599 27.2605 55.1557C26.6593 54.6515 26.1824 54.0529 25.8571 53.3941C25.5317 52.7353 25.3643 52.0292 25.3643 51.3161C25.3643 50.6031 25.5317 49.897 25.8571 49.2382C26.1824 48.5794 26.6593 47.9808 27.2605 47.4766C27.8617 46.9724 28.5754 46.5724 29.3608 46.2996C30.1463 46.0267 30.9882 45.8862 31.8384 45.8862H36.9695C37.2152 45.8862 37.4508 45.9681 37.6245 46.1138C37.7981 46.2594 37.8957 46.457 37.8957 46.663C37.8957 46.8691 37.7981 47.0667 37.6245 47.2123C37.4508 47.358 37.2152 47.4399 36.9695 47.4399H31.8384C30.6126 47.4399 29.4371 47.8482 28.5703 48.5752C27.7036 49.3021 27.2167 50.2881 27.2167 51.3161C27.2167 52.3442 27.7036 53.3301 28.5703 54.0571C29.4371 54.784 30.6126 55.1924 31.8384 55.1924H38.081C38.3266 55.1924 38.5622 55.2743 38.7359 55.42C38.9096 55.5656 39.0072 55.7632 39.0072 55.9692C39.0072 56.1753 38.9096 56.3728 38.7359 56.5185C38.5622 56.6642 38.3266 56.7461 38.081 56.7461Z" fill="#EDBDBA"/>
</svg>
