<svg width="77" height="77" viewBox="0 0 77 77" fill="none" xmlns="http://www.w3.org/2000/svg">
<circle cx="38.5" cy="38.5" r="38.5" fill="#FAF1E9"/>
<path d="M60.2498 17.3937C54.536 15.2341 48.6062 14.813 43.5525 16.2086C39.2051 17.4087 35.5195 20.256 33.4407 24.0205C31.4751 27.5804 31.1524 31.5143 32.578 34.5435C33.4632 36.4248 34.9293 37.9711 36.7023 39.0316C36.6858 39.4297 36.6764 39.8373 36.6764 40.2579V49.5267C36.0767 48.5972 35.3852 47.7084 34.6256 46.8776C35.3191 45.1392 35.4217 43.2086 34.8674 41.3787C34.189 39.1397 32.6992 37.3755 30.5593 36.2772C27.69 34.8046 23.7221 34.6342 20.2036 35.8328C14.5864 37.7462 12.0721 41.4444 11.9679 41.6009C11.75 41.9279 11.7156 42.344 11.8771 42.7022C12.0384 43.0605 12.3727 43.3107 12.762 43.3642C15.2578 43.7078 16.5639 45.2929 18.0762 47.1281C19.8265 49.2521 21.8104 51.6595 25.8837 52.1478C26.2121 52.1872 26.5398 52.2067 26.8659 52.2067C29.2985 52.2067 31.6242 51.1265 33.2312 49.2111C33.298 49.1314 33.3598 49.0488 33.4234 48.9672C34.8601 50.6682 35.9641 52.6026 36.5008 54.5533C36.5379 54.6884 36.5992 54.8099 36.6767 54.9173V61.9023C36.6767 62.5327 37.1877 63.0435 37.8179 63.0435C38.4483 63.0435 38.9591 62.5327 38.9591 61.9023V40.2582C38.9591 40.1922 38.9602 40.1278 38.9606 40.0625C40.0419 40.4162 41.1826 40.6054 42.3383 40.6054C42.6465 40.6054 42.9563 40.5919 43.266 40.5644C47.5971 40.1806 51.2515 37.1214 53.0418 32.3813C53.1981 31.9672 53.3511 31.5204 53.5097 31.0154C53.6984 30.4141 53.3638 29.7736 52.7624 29.585C52.1611 29.3963 51.5207 29.731 51.332 30.3322C51.1867 30.7952 51.0476 31.2018 50.9065 31.5751C49.4333 35.4757 46.5018 37.9863 43.0645 38.2909C41.7073 38.4114 40.336 38.1757 39.0843 37.6619C39.8409 30.1047 43.788 27.9631 43.9886 27.8592C44.5482 27.5781 44.7772 26.8978 44.4998 26.335C44.2212 25.7697 43.5377 25.5367 42.9717 25.8158C42.747 25.9266 38.1009 28.3147 36.9386 36.4111C35.965 35.6438 35.1639 34.6782 34.6434 33.5718C33.5287 31.2032 33.8261 28.0449 35.439 25.1238C37.2226 21.8937 40.4014 19.4462 44.1602 18.4087C48.19 17.2962 52.8639 17.4669 57.5065 18.8706C55.9167 20.2679 54.6594 21.8204 53.7565 23.5048C53.4587 24.0602 53.6676 24.7519 54.2232 25.0497C54.3948 25.1416 54.5794 25.1852 54.7612 25.1852C55.1684 25.1852 55.5623 24.9669 55.768 24.583C56.8018 22.6545 58.3986 20.9096 60.5141 19.3966C60.9171 19.1258 61.1118 18.6428 61.0045 18.1941C60.8639 17.6066 60.2839 17.405 60.2498 17.3937ZM26.1553 49.8819C22.9901 49.5024 21.4587 47.6441 19.8376 45.6766C18.5791 44.1494 17.1874 42.4604 14.9798 41.5949C16.08 40.5147 18.0248 38.9862 20.9396 37.9933C23.8925 36.9872 27.1793 37.1082 29.5171 38.3077C31.1162 39.1284 32.1814 40.3842 32.6831 42.0405C32.9886 43.0488 33.0173 44.1007 32.7928 45.1033C30.41 43.0628 27.6134 41.6018 24.8695 41.1564C24.2466 41.0561 23.6612 41.4779 23.5602 42.1001C23.4592 42.7221 23.8817 43.3083 24.5039 43.4093C27.0217 43.818 29.6443 45.2842 31.8226 47.2956C31.7158 47.4487 31.6041 47.5993 31.4824 47.7442C30.1375 49.3475 28.1953 50.1265 26.1553 49.8819Z" fill="#EDBDBA"/>
</svg>
