<svg width="51" height="51" viewBox="0 0 51 51" fill="none" xmlns="http://www.w3.org/2000/svg">
<path d="M25.505 4.59289C32.3196 4.59289 33.1266 4.62278 35.8066 4.74233C38.2973 4.85192 39.6423 5.27037 40.539 5.61907C41.7246 6.07736 42.5814 6.63528 43.4681 7.52198C44.3647 8.41864 44.9127 9.26548 45.371 10.4511C45.7197 11.3477 46.1381 12.7027 46.2477 15.1834C46.3673 17.8734 46.3972 18.6804 46.3972 25.4851C46.3972 32.2997 46.3673 33.1067 46.2477 35.7867C46.1381 38.2774 45.7197 39.6224 45.371 40.5191C44.9127 41.7046 44.3548 42.5614 43.4681 43.4481C42.5714 44.3448 41.7246 44.8928 40.539 45.351C39.6423 45.6997 38.2874 46.1182 35.8066 46.2278C33.1166 46.3473 32.3096 46.3772 25.505 46.3772C18.6904 46.3772 17.8834 46.3473 15.2034 46.2278C12.7126 46.1182 11.3677 45.6997 10.471 45.351C9.28541 44.8928 8.4286 44.3348 7.5419 43.4481C6.64524 42.5515 6.09729 41.7046 5.63899 40.5191C5.29029 39.6224 4.87185 38.2674 4.76226 35.7867C4.6427 33.0967 4.61282 32.2897 4.61282 25.4851C4.61282 18.6704 4.6427 17.8634 4.76226 15.1834C4.87185 12.6927 5.29029 11.3477 5.63899 10.4511C6.09729 9.26548 6.65521 8.40867 7.5419 7.52198C8.43856 6.62532 9.28541 6.07736 10.471 5.61907C11.3677 5.27037 12.7226 4.85192 15.2034 4.74233C17.8834 4.62278 18.6904 4.59289 25.505 4.59289ZM25.505 0C18.5808 0 17.714 0.0298886 14.9941 0.149443C12.2842 0.268998 10.4212 0.707365 8.80719 1.33503C7.12346 1.99258 5.69877 2.85935 4.28404 4.28404C2.85935 5.69877 1.99258 7.12346 1.33503 8.79723C0.707365 10.4212 0.268998 12.2743 0.149443 14.9842C0.0298887 17.714 0 18.5808 0 25.505C0 32.4292 0.0298887 33.296 0.149443 36.0158C0.268998 38.7257 0.707365 40.5888 1.33503 42.2028C1.99258 43.8865 2.85935 45.3112 4.28404 46.7259C5.69877 48.1407 7.12346 49.0174 8.79723 49.665C10.4212 50.2926 12.2743 50.731 14.9842 50.8506C17.704 50.9701 18.5708 51 25.495 51C32.4192 51 33.286 50.9701 36.0059 50.8506C38.7158 50.731 40.5788 50.2926 42.1928 49.665C43.8666 49.0174 45.2913 48.1407 46.706 46.7259C48.1207 45.3112 48.9975 43.8865 49.6451 42.2127C50.2727 40.5888 50.7111 38.7357 50.8306 36.0258C50.9502 33.3059 50.9801 32.4391 50.9801 25.5149C50.9801 18.5907 50.9502 17.724 50.8306 15.0041C50.7111 12.2942 50.2727 10.4311 49.6451 8.81715C49.0174 7.12346 48.1506 5.69877 46.7259 4.28404C45.3112 2.86931 43.8865 1.99258 42.2127 1.34499C40.5888 0.717328 38.7357 0.278961 36.0258 0.159406C33.296 0.0298887 32.4292 0 25.505 0Z" fill="white"/>
<path d="M25.5035 12.4038C18.2705 12.4038 12.4023 18.2719 12.4023 25.505C12.4023 32.7381 18.2705 38.6062 25.5035 38.6062C32.7366 38.6062 38.6047 32.7381 38.6047 25.505C38.6047 18.2719 32.7366 12.4038 25.5035 12.4038ZM25.5035 34.0033C20.811 34.0033 17.0052 30.1975 17.0052 25.505C17.0052 20.8125 20.811 17.0067 25.5035 17.0067C30.1961 17.0067 34.0019 20.8125 34.0019 25.505C34.0019 30.1975 30.1961 34.0033 25.5035 34.0033Z" fill="white"/>
<path d="M42.1836 11.8856C42.1836 13.5793 40.8087 14.9442 39.125 14.9442C37.4313 14.9442 36.0664 13.5694 36.0664 11.8856C36.0664 10.1919 37.4413 8.82703 39.125 8.82703C40.8087 8.82703 42.1836 10.2019 42.1836 11.8856Z" fill="white"/>
</svg>
