<svg width="63" height="63" viewBox="0 0 63 63" fill="none" xmlns="http://www.w3.org/2000/svg">
<circle cx="31.3118" cy="31.3118" r="31.3118" fill="#FAF1E9"/>
<path d="M46.7197 24.0134H40.681C39.639 24.0134 38.7911 24.8616 38.7911 25.9043V32.8547H36.5324C36.658 32.3984 36.7045 31.8601 36.674 31.2338V31.2337C36.6249 28.5867 36.1446 26.3558 35.2462 24.603C34.5487 23.2421 33.7346 22.4263 33.036 21.9385C33.8559 21.0955 34.33 19.8962 34.33 18.5131C34.33 16.0245 32.3448 14 29.9048 14C27.4648 14 25.4796 16.0245 25.4796 18.5131C25.4796 18.8012 25.7132 19.0347 26.0013 19.0347H26.3557C26.3231 19.2315 26.3057 19.4321 26.3057 19.6358C26.3057 21.3896 27.5588 22.8554 29.2156 23.1839C29.042 23.8287 28.9557 24.5891 28.956 25.4529L27.655 26.5719L24.4894 26.8279L20.8379 25.6208C20.5032 25.5095 20.1239 25.3838 19.7948 25.6211C19.4704 25.8551 19.4704 26.2649 19.4704 26.3994V29.1143C19.4704 29.4025 19.704 29.6359 19.9921 29.6359H20.6131L19.6606 32.9273C19.5805 33.204 19.7399 33.4933 20.0167 33.5734C20.2936 33.6538 20.5827 33.494 20.6628 33.2173L21.6992 29.6359H23.1822C21.3377 35.2606 22.3901 39.015 24.0078 42.8146H23.0701L19.1647 38.4479L19.9905 35.5949C20.0707 35.3182 19.9112 35.0289 19.6345 34.9489C19.3578 34.8688 19.0685 35.0282 18.9884 35.3049L18.1985 38.0338C15.7555 37.9931 13.5702 39.6774 13.0134 42.1008C12.9489 42.3815 13.1241 42.6613 13.4047 42.7259L14.1452 42.8963C13.956 44.8612 15.25 46.715 17.2234 47.1693C17.5231 47.2383 17.8254 47.2724 18.1256 47.2724C18.8658 47.2724 19.5931 47.0649 20.2364 46.6617C20.9914 46.1886 21.5539 45.4931 21.8583 44.6712L22.4426 44.8056C22.6167 44.8459 22.7818 44.8663 22.9468 44.7775C23.1003 44.6948 23.2023 44.5456 23.2405 44.3773C23.2773 44.2065 23.3052 44.033 23.3246 43.8579H34.2341C34.5829 46.0269 36.4285 47.662 38.6326 47.662C40.8367 47.662 42.6822 46.0269 43.0311 43.8579H43.4292C43.4292 43.8579 43.5082 43.8588 43.5262 43.8588C43.6754 43.8588 43.8909 43.8422 44.0678 43.6622C44.1564 43.5722 44.2603 43.411 44.2523 43.155C44.2376 42.6652 44.1641 42.1919 44.0386 41.742C44.4541 39.2196 44.0543 37.6833 43.4617 36.481C43.8364 36.2354 44.0848 35.8123 44.0848 35.3315V33.8979H46.7196C47.7616 33.8979 48.6094 33.0497 48.6094 32.007V25.9042C48.6096 24.8616 47.7618 24.0134 46.7197 24.0134ZM19.6824 45.7779C19.0147 46.1963 18.2246 46.3294 17.4576 46.1528H17.4575C16.0458 45.8279 15.104 44.5333 15.1726 43.1336L20.8307 44.4358C20.5966 44.987 20.2005 45.4532 19.6824 45.7779ZM22.2925 43.7007L14.1785 41.8335C14.8046 40.1189 16.4897 38.9838 18.3316 39.0814L22.3064 43.5258C22.3029 43.5844 22.2983 43.6427 22.2925 43.7007ZM30.1715 34.6108C30.0201 35.0102 30.0201 35.5025 30.0201 36.1841V38.1525H28.11V35.452C28.11 32.3989 29.7763 31.8548 30.5241 31.765H35.638C35.6174 32.4579 35.4611 32.9505 35.1642 33.2631C34.8183 33.6274 34.2264 33.8049 33.3545 33.8057L31.4821 33.8077C30.8145 33.8078 30.3735 34.0779 30.1715 34.6108ZM30.0201 39.1957V40.4412C30.0153 40.4412 30.0105 40.4412 30.0055 40.4412H26.3003C26.342 40.0549 26.4623 39.7559 26.6599 39.5491C26.9538 39.2416 27.3678 39.1957 27.5884 39.1957H30.0201ZM35.615 30.7218H30.8712C30.6807 30.1224 30.5109 29.466 30.3712 28.7913L31.8135 27.8552C32.6008 27.3439 33.0104 26.6215 32.9372 25.8731C32.8724 25.2096 32.4213 24.617 31.7882 24.3634C31.2099 24.1318 30.5875 24.2045 30.0374 24.5562C30.0828 24.0573 30.1672 23.6119 30.2894 23.2338C30.5117 23.2108 30.7325 23.1674 30.9494 23.1036C31.3908 23.0011 31.7987 22.8377 32.167 22.6211C33.1716 23.2213 35.3812 25.1681 35.615 30.7218ZM26.5611 17.9915C26.8071 16.3248 28.2128 15.0433 29.9048 15.0433C31.7696 15.0433 33.2867 16.5999 33.2867 18.5132C33.2867 20.0693 32.5405 21.3235 31.3373 21.8754V19.1308C31.3373 18.6555 31.1555 18.0726 30.2893 17.9937C30.2736 17.9922 30.2578 17.9915 30.242 17.9915H26.5611ZM27.349 19.6359C27.349 19.43 27.3724 19.229 27.4185 19.0348H30.2164C30.2486 19.0383 30.2721 19.042 30.2889 19.0454C30.2916 19.0648 30.294 19.0926 30.294 19.1308V22.1823C30.1697 22.2006 30.0447 22.2099 29.9197 22.21C29.9185 22.21 29.9173 22.21 29.9162 22.21C28.5005 22.2086 27.349 21.0545 27.349 19.6359ZM26.6728 27.6981L27.9082 27.5982C28.0183 27.5894 28.1227 27.5458 28.2065 27.4738L30.4363 25.5559L30.4367 25.5556C30.6523 25.3698 30.8824 25.2745 31.1065 25.2745C31.2062 25.2745 31.3048 25.2935 31.4003 25.3317C31.6759 25.4421 31.8716 25.6944 31.899 25.9744C31.9334 26.3268 31.7013 26.684 31.2455 26.98L28.7609 28.5928H26.6729V27.6981H26.6728ZM24.4683 27.8765L25.6295 27.7826V28.5929H24.2802C24.1053 28.5929 24.0626 28.4475 24.0576 28.3256C24.0548 28.2565 24.0613 27.9099 24.4683 27.8765ZM23.2337 27.5163C23.0766 27.7739 23.0032 28.0753 23.0153 28.3683C23.0184 28.4442 23.0281 28.5173 23.0416 28.5885C23.0416 28.59 23.0407 28.5914 23.041 28.5928H20.5138V26.6125L23.2357 27.5123C23.2349 27.5137 23.2345 27.515 23.2337 27.5163ZM24.2831 29.6361H28.9152C29.016 29.6361 29.1147 29.6069 29.1992 29.552L29.4353 29.3987C29.5489 29.9007 29.6782 30.3892 29.8191 30.8506C28.7553 31.1646 27.0667 32.1795 27.0667 35.4519V38.2048C26.7007 38.2786 26.2678 38.4493 25.9056 38.8283C25.5239 39.2278 25.3058 39.7691 25.2535 40.4411H24.2012C23.1409 37.3852 22.7376 34.1333 24.2831 29.6361ZM25.1429 42.8129C24.9501 42.3695 24.7642 41.9278 24.5892 41.4844H30.0054C30.7073 41.4844 31.0632 41.1648 31.0632 40.5346V38.674V36.7056H35.1805C35.4687 36.7056 35.7021 36.4721 35.7021 36.184C35.7021 35.8959 35.4687 35.6624 35.1805 35.6624H31.067C31.0737 35.3661 31.0927 35.1238 31.147 34.9806C31.1733 34.911 31.1961 34.8509 31.4826 34.8509L33.3555 34.849C34.5284 34.8479 35.3675 34.5641 35.9208 33.9814C35.9464 33.9544 35.9706 33.9261 35.9949 33.898H39.3128H43.0418V35.3316C43.0418 35.5109 42.8906 35.6624 42.7117 35.6624H37.5188C37.2306 35.6624 36.9972 35.8959 36.9972 36.184C36.9972 36.4721 37.2306 36.7056 37.5188 36.7056H42.4052C42.8175 37.4709 43.1884 38.4231 43.1663 39.9275C42.1343 38.494 40.4637 37.5723 38.5676 37.5723C37.0449 37.5723 35.616 38.1696 34.5442 39.2542C33.5931 40.2166 33.0219 41.4656 32.9044 42.8146L25.1429 42.8129ZM38.6326 46.6189C37.002 46.6189 35.6267 45.4439 35.294 43.858H41.9713C41.6385 45.4438 40.2632 46.6189 38.6326 46.6189ZM42.5639 42.8148H34.7015H33.9521C34.2082 40.4561 36.1804 38.6155 38.5676 38.6155C40.6635 38.6155 42.4236 39.9976 43.0065 41.9322C43.0084 41.9384 43.0102 41.9445 43.0123 41.9505C43.0947 42.2281 43.153 42.517 43.1845 42.8148H42.5639ZM47.5663 32.007C47.5663 32.4745 47.1865 32.8547 46.7197 32.8547H39.8344V30.161H47.5663V32.007ZM47.5663 29.1177H39.8344V28.0083H47.5663V29.1177ZM47.5663 26.9651H39.8344V25.9043C39.8344 25.4369 40.2142 25.0566 40.681 25.0566H46.7197C47.1865 25.0566 47.5663 25.4369 47.5663 25.9043V26.9651Z" fill="#EDBDBA"/>
</svg>
