<svg width="21" height="20" viewBox="0 0 21 20" fill="none" xmlns="http://www.w3.org/2000/svg">
<path d="M20.0829 0.990722C19.1353 0.480462 18.0784 1.46454 17.4588 2.04769C16.0374 3.43268 14.8346 5.03636 13.486 6.49424C11.9917 8.09792 10.6067 9.7016 9.0759 11.2689C8.20117 12.1436 7.25355 13.0912 6.67039 14.1847C5.35829 12.9089 4.22843 11.524 2.77055 10.3942C1.71358 9.59231 -0.0358866 9.00916 0.000560526 10.9409C0.0734549 13.4558 2.29673 16.1529 3.93685 17.8658C4.62935 18.5948 5.54053 19.3602 6.5975 19.3966C7.87315 19.4695 9.18525 17.9387 9.95064 17.1004C11.2992 15.6425 12.3927 14.0024 13.6318 12.5081C15.2355 10.5399 16.8756 8.60818 18.4428 6.60359C19.4269 5.36438 22.5249 2.30276 20.0829 0.990722ZM1.60418 10.7951C1.56773 10.7951 1.53128 10.7951 1.45839 10.8315C1.3126 10.7951 1.20326 10.7586 1.05747 10.6857C1.16681 10.6128 1.34905 10.6492 1.60418 10.7951Z" fill="#DC8962"/>
</svg>
