<svg width="63" height="63" viewBox="0 0 63 63" fill="none" xmlns="http://www.w3.org/2000/svg">
<circle cx="31.3118" cy="31.3118" r="31.3118" fill="#FAF1E9"/>
<path d="M48.0944 26.898L44.3609 17.1911C43.6535 15.3561 41.5924 14.442 39.7574 15.1495C39.7307 15.1598 39.7042 15.1704 39.6777 15.1813L21.0205 22.9152C19.244 23.644 18.3709 25.6549 19.0514 27.4504L19.5644 28.8197H18.3877C16.468 28.8219 14.9123 30.3776 14.9102 32.2972V44.8162C14.9123 46.7359 16.468 48.2916 18.3877 48.2937H42.0346C43.9543 48.2916 45.51 46.7359 45.5121 44.8162V32.2972C45.511 32.1085 45.4943 31.9201 45.4621 31.7342L46.108 31.4727C47.9004 30.738 48.7813 28.7092 48.0944 26.898ZM18.3877 29.9326H42.0346C43.2835 29.9362 44.3137 30.9115 44.3854 32.1582H16.0369C16.1086 30.9114 17.1388 29.9361 18.3877 29.9326ZM23.98 26.5809L27.699 24.7208L28.4635 26.6332L24.7445 28.4927L23.98 26.5809ZM44.3993 44.8163C44.3978 46.1217 43.34 47.1795 42.0346 47.181H18.3877C17.0823 47.1795 16.0245 46.1217 16.023 44.8163V37.7222H44.3993V44.8163ZM44.3993 36.6094H16.023V33.271H44.3993V36.6094ZM45.6907 30.4445L45.1093 30.6799C44.5087 29.5376 43.3252 28.8216 42.0346 28.8198H26.579L29.4194 27.3993C29.6784 27.27 29.795 26.9637 29.6876 26.6949L28.5075 23.746C28.3933 23.4607 28.0696 23.3219 27.7843 23.436C27.7699 23.4417 27.7558 23.4481 27.7419 23.455L23.0242 25.8153C22.7654 25.9448 22.649 26.251 22.7566 26.5197L23.6769 28.8198H20.7524L20.0936 27.0627C19.6265 25.829 20.2264 24.4478 21.4467 23.9469L40.1034 16.2129C41.3506 15.6957 42.781 16.2875 43.2982 17.5348C43.3063 17.5542 43.3141 17.5737 43.3216 17.5933L47.055 27.3003C47.5273 28.5449 46.9223 29.9392 45.6907 30.4445Z" fill="#EDBDBA"/>
<path d="M34.9256 45.6162C35.9625 46.2186 37.2428 46.2186 38.2797 45.6162C39.8739 46.5424 41.9171 46.0009 42.8433 44.4066C43.7695 42.8124 43.2279 40.7692 41.6337 39.843C41.122 39.5457 40.5406 39.3898 39.9489 39.3912C39.3623 39.3915 38.7863 39.5473 38.2797 39.843C36.6854 38.9168 34.6422 39.4583 33.716 41.0525C32.7898 42.6468 33.3314 44.69 34.9256 45.6162ZM39.21 40.6398C39.4466 40.5526 39.6966 40.5067 39.9489 40.504C41.178 40.504 42.1745 41.5005 42.1745 42.7296C42.1745 43.9588 41.178 44.9552 39.9489 44.9552C39.6966 44.9526 39.4466 44.9067 39.21 44.8195C40.1951 43.6003 40.1951 41.8589 39.21 40.6398ZM38.2797 41.273C39.0216 42.1024 39.0216 43.3568 38.2797 44.1863C37.5378 43.3568 37.5378 42.1024 38.2797 41.273ZM36.6105 40.504C36.8627 40.5066 37.1127 40.5526 37.3494 40.6398C36.3643 41.8589 36.3643 43.6004 37.3494 44.8195C37.1127 44.9067 36.8627 44.9526 36.6105 44.9552C35.3813 44.9552 34.3849 43.9588 34.3849 42.7296C34.3849 41.5004 35.3813 40.504 36.6105 40.504Z" fill="#EDBDBA"/>
<path d="M38.382 26.3928L38.834 27.4097L44.1421 25.0501L43.6901 24.0333L38.382 26.3928Z" fill="#EDBDBA"/>
<path d="M42.505 21.678L34.8379 25.2168L35.304 26.2267L42.9711 22.6879L42.505 21.678Z" fill="#EDBDBA"/>
</svg>
