<svg width="63" height="64" viewBox="0 0 63 64" fill="none" xmlns="http://www.w3.org/2000/svg">
<circle cx="31.3118" cy="31.9354" r="31.3118" fill="#FAF1E9"/>
<path d="M42.8671 30.5831V23.748L46.222 20.4134V31.8541H47.3403V19.0719H47.3352C47.3352 19.0002 47.3263 18.9279 47.2978 18.859C47.2117 18.6512 47.007 18.5161 46.7811 18.5161H19.9424C19.7937 18.5161 19.6517 18.5745 19.5471 18.6789L15.0745 23.1244C14.9733 23.225 14.9102 23.3639 14.9102 23.5179V44.6364C14.9102 44.9437 15.1601 45.1922 15.4693 45.1922H42.308C42.6172 45.1922 42.8671 44.9437 42.8671 44.6364V37.9896C43.5705 39.0139 43.9854 40.2488 43.9854 41.5798C43.9854 45.1038 41.1008 47.9709 37.5553 47.9709C37.2461 47.9709 36.9962 48.2193 36.9962 48.5267C36.9962 48.834 37.2461 49.0824 37.5553 49.0824H38.6736C44.0687 49.0824 48.4585 44.7192 48.4585 39.3568C48.4585 35.4871 46.1672 32.1476 42.8671 30.5831ZM42.0765 22.9621H31.9158L35.2707 19.6276H45.4314L42.0765 22.9621ZM30.1708 23.125C30.0656 23.2289 30.0069 23.37 30.0069 23.5179V27.4081H27.7704V23.748L31.9158 19.6276H33.6894L30.1708 23.125ZM20.1739 19.6276H30.3346L26.9797 22.9621H16.8191L20.1739 19.6276ZM16.0284 44.0807V24.0736H26.6521V27.9639C26.6521 28.2712 26.902 28.5196 27.2112 28.5196H30.5661C30.8753 28.5196 31.1252 28.2712 31.1252 27.9639V24.0736H41.7489V30.1308C40.7804 29.8106 39.7488 29.6311 38.6736 29.6311H37.8349V26.8524C37.8349 26.644 37.718 26.4534 37.5318 26.3578C37.3445 26.2622 37.1209 26.2783 36.9509 26.4L29.1229 31.9575C28.9759 32.062 28.8887 32.2304 28.8887 32.4099C28.8887 32.5894 28.9759 32.7578 29.1229 32.8617L36.9509 38.4192C37.1209 38.5404 37.3445 38.5554 37.5318 38.4615C37.718 38.3664 37.8349 38.1758 37.8349 37.9674V35.1948C39.3267 35.2587 40.6882 35.83 41.7489 36.7392V44.0807H16.0284ZM42.894 46.8789C44.2588 45.5206 45.1037 43.6466 45.1037 41.5798C45.1037 37.4428 41.7176 34.0771 37.5553 34.0771H37.2757C36.9665 34.0771 36.7166 34.3256 36.7166 34.6329V36.8876L30.4101 32.4099L36.7166 27.9322V30.1869C36.7166 30.4942 36.9665 30.7426 37.2757 30.7426H38.6736C43.4526 30.7426 47.3403 34.6068 47.3403 39.3568C47.3403 42.5851 45.5449 45.4039 42.894 46.8789Z" fill="#EDBDBA"/>
</svg>
