<svg width="24" height="33" viewBox="0 0 24 33" fill="none" xmlns="http://www.w3.org/2000/svg">
<path d="M20.5712 9.05804H19.4219V7.35795C19.4218 3.4108 16.2898 0.199951 12.44 0.199951C8.59024 0.199951 5.45807 3.41124 5.45807 7.35795V9.05804H4.30882C2.44024 9.05804 0.919922 10.6168 0.919922 12.5325V28.7254C0.919922 30.6417 2.44024 32.2 4.30882 32.2H20.571C22.4396 32.2 23.9599 30.6415 23.9599 28.7254V12.5325C23.9599 10.6168 22.4396 9.05804 20.5712 9.05804ZM7.66895 7.35795C7.66895 4.66087 9.80908 2.46668 12.44 2.46668C15.0706 2.46668 17.2107 4.66087 17.2107 7.35795V9.05804H7.66895V7.35795ZM21.7492 28.7254C21.7492 29.3919 21.2205 29.9332 20.5712 29.9332H4.30867C3.65908 29.9332 3.13066 29.3914 3.13066 28.7254V12.5325C3.13066 11.8665 3.65908 11.3248 4.30867 11.3248H5.45792V12.9142C5.10269 13.2315 4.87356 13.6935 4.87356 14.2149C4.87356 15.1718 5.63009 15.9478 6.56344 15.9478C7.49649 15.9478 8.25331 15.1718 8.25331 14.2149C8.25331 13.694 8.02404 13.2319 7.66895 12.9142V11.3248H17.2107V12.9142C16.8555 13.2315 16.6264 13.6935 16.6264 14.2149C16.6264 15.1718 17.3829 15.9478 18.3163 15.9478C19.2496 15.9478 20.0061 15.1718 20.0061 14.2149C20.0061 13.694 19.7769 13.2315 19.4218 12.9142V11.3248H20.571C21.2206 11.3248 21.749 11.8665 21.749 12.5325V28.7254H21.7492Z" fill="#FAF1E9"/>
</svg>
