<svg width="12" height="13" viewBox="0 0 12 13" fill="none" xmlns="http://www.w3.org/2000/svg">
<path d="M12 2.85366C12 3.00898 11.9432 3.1589 11.8404 3.27497C11.7376 3.39104 11.5959 3.46519 11.4423 3.48337L11.3684 3.4878H10.8347L10.0573 11.4273C10.0149 11.8581 9.81453 12.2577 9.49503 12.5484C9.17553 12.8391 8.75978 13 8.32863 13H3.67137C3.24022 13 2.82447 12.8391 2.50497 12.5484C2.18547 12.2577 1.98507 11.8581 1.94274 11.4273L1.16526 3.4878H0.631579C0.464074 3.4878 0.303429 3.42099 0.184985 3.30207C0.0665411 3.18314 0 3.02184 0 2.85366C0 2.68547 0.0665411 2.52417 0.184985 2.40525C0.303429 2.28632 0.464074 2.21951 0.631579 2.21951H3.78947C3.78947 1.92804 3.84665 1.63943 3.95774 1.37014C4.06883 1.10086 4.23166 0.856181 4.43692 0.65008C4.64219 0.443979 4.88587 0.280491 5.15407 0.16895C5.42226 0.0574094 5.70971 0 6 0C6.29029 0 6.57774 0.0574094 6.84593 0.16895C7.11412 0.280491 7.35781 0.443979 7.56308 0.65008C7.76834 0.856181 7.93117 1.10086 8.04226 1.37014C8.15335 1.63943 8.21053 1.92804 8.21053 2.21951H11.3684C11.5359 2.21951 11.6966 2.28632 11.815 2.40525C11.9335 2.52417 12 2.68547 12 2.85366ZM7.42105 4.91463C7.30659 4.91464 7.19599 4.95626 7.10973 5.0318C7.02346 5.10735 6.96736 5.2117 6.95179 5.32556L6.94737 5.39024V9.82927L6.95179 9.89395C6.96739 10.0078 7.02351 10.1121 7.10977 10.1876C7.19603 10.2631 7.30661 10.3047 7.42105 10.3047C7.5355 10.3047 7.64607 10.2631 7.73233 10.1876C7.8186 10.1121 7.87472 10.0078 7.89032 9.89395L7.89474 9.82927V5.39024L7.89032 5.32556C7.87475 5.2117 7.81864 5.10735 7.73238 5.0318C7.64611 4.95626 7.53552 4.91464 7.42105 4.91463ZM4.57895 4.91463C4.46448 4.91464 4.35389 4.95626 4.26762 5.0318C4.18136 5.10735 4.12525 5.2117 4.10968 5.32556L4.10526 5.39024V9.82927L4.10968 9.89395C4.12528 10.0078 4.1814 10.1121 4.26767 10.1876C4.35393 10.2631 4.4645 10.3047 4.57895 10.3047C4.69339 10.3047 4.80397 10.2631 4.89023 10.1876C4.97649 10.1121 5.03261 10.0078 5.04821 9.89395L5.05263 9.82927V5.39024L5.04821 5.32556C5.03264 5.2117 4.97654 5.10735 4.89027 5.0318C4.80401 4.95626 4.69341 4.91464 4.57895 4.91463ZM6 1.26829C5.74874 1.26829 5.50778 1.36851 5.33011 1.5469C5.15244 1.72529 5.05263 1.96723 5.05263 2.21951H6.94737C6.94737 1.96723 6.84756 1.72529 6.66989 1.5469C6.49222 1.36851 6.25126 1.26829 6 1.26829Z" fill="#513629"/>
</svg>
