<svg width="51" height="50" viewBox="0 0 51 50" fill="none" xmlns="http://www.w3.org/2000/svg">
<circle cx="25.5072" cy="25.1322" r="24.7279" fill="white"/>
<path d="M37.3655 35.9885L32.104 30.7274C33.9231 28.6487 34.8631 25.9444 34.7255 23.1857C34.5878 20.4269 33.3832 17.8296 31.3662 15.9424C29.3491 14.0551 26.6774 13.0256 23.9154 13.0713C21.1534 13.117 18.5173 14.2343 16.5637 16.1872C14.6102 18.1401 13.4922 20.7758 13.4458 23.5376C13.3995 26.2994 14.4284 28.9711 16.3154 30.9885C18.2023 33.0059 20.7995 34.211 23.5584 34.3493C26.3173 34.4876 29.022 33.5483 31.1013 31.7297L36.3631 36.9911C36.4964 37.1223 36.6762 37.1954 36.8632 37.1946C37.0502 37.1939 37.2293 37.1192 37.3616 36.987C37.4938 36.8547 37.5684 36.6756 37.5692 36.4886C37.5699 36.3015 37.4967 36.1218 37.3655 35.9885ZM14.8877 23.7296C14.8877 21.907 15.4282 20.1252 16.4409 18.6097C17.4536 17.0942 18.893 15.913 20.5771 15.2155C22.2611 14.518 24.1142 14.3355 25.902 14.6911C27.6898 15.0467 29.332 15.9244 30.6209 17.2132C31.9098 18.502 32.7876 20.1441 33.1432 21.9318C33.4988 23.7194 33.3163 25.5724 32.6187 27.2563C31.9212 28.9402 30.7399 30.3795 29.2243 31.3921C27.7087 32.4048 25.9268 32.9452 24.104 32.9452C21.6605 32.9425 19.3179 31.9707 17.5901 30.243C15.8623 28.5153 14.8904 26.1729 14.8877 23.7296Z" fill="#DC8962"/>
</svg>
