<svg width="22" height="22" fill="none" xmlns="http://www.w3.org/2000/svg"><mask id="a" maskUnits="userSpaceOnUse" x="0" y="0" width="22" height="22" fill="#000"><path fill="#fff" d="M0 0h22v22H0z"/><path d="M20.738 20.13V2.466l.732-.733a.429.429 0 10-.607-.606l-.732.732H2.465l-.733-.732a.429.429 0 10-.606.606l.732.733V20.13l-.732.732a.429.429 0 10.606.607l.733-.732H20.13l.732.732a.428.428 0 00.607 0 .429.429 0 000-.607l-.732-.732zm-9.44-17.414h7.975l-2.228 2.228a8.538 8.538 0 00-5.747-2.228A8.537 8.537 0 005.55 4.944L3.323 2.716h7.975zm-.607 8.582l-5.14 5.14a7.683 7.683 0 01-1.977-5.14c0-1.975.752-3.774 1.976-5.14l5.141 5.14zM6.157 5.55a7.683 7.683 0 015.14-1.976c1.976 0 3.775.752 5.142 1.976l-5.141 5.141-5.14-5.14zm5.14 6.355l5.142 5.14a7.683 7.683 0 01-5.141 1.976 7.683 7.683 0 01-5.14-1.976l5.14-5.14zm.608-.607l5.14-5.14a7.683 7.683 0 011.976 5.14 7.683 7.683 0 01-1.976 5.14l-5.14-5.14zm-9.189 0V3.323L4.944 5.55a8.537 8.537 0 00-2.228 5.748c0 2.212.849 4.224 2.228 5.747l-2.228 2.228v-7.975zm8.582 8.582H3.323l2.227-2.228a8.538 8.538 0 005.748 2.227 8.538 8.538 0 005.747-2.227l2.228 2.227h-7.975zm8.582-8.582v7.975l-2.228-2.228a8.538 8.538 0 002.227-5.747 8.538 8.538 0 00-2.227-5.748l2.227-2.227v7.975z"/></mask><path d="M20.738 20.13V2.466l.732-.733a.429.429 0 10-.607-.606l-.732.732H2.465l-.733-.732a.429.429 0 10-.606.606l.732.733V20.13l-.732.732a.429.429 0 10.606.607l.733-.732H20.13l.732.732a.428.428 0 00.607 0 .429.429 0 000-.607l-.732-.732zm-9.44-17.414h7.975l-2.228 2.228a8.538 8.538 0 00-5.747-2.228A8.537 8.537 0 005.55 4.944L3.323 2.716h7.975zm-.607 8.582l-5.14 5.14a7.683 7.683 0 01-1.977-5.14c0-1.975.752-3.774 1.976-5.14l5.141 5.14zM6.157 5.55a7.683 7.683 0 015.14-1.976c1.976 0 3.775.752 5.142 1.976l-5.141 5.141-5.14-5.14zm5.14 6.355l5.142 5.14a7.683 7.683 0 01-5.141 1.976 7.683 7.683 0 01-5.14-1.976l5.14-5.14zm.608-.607l5.14-5.14a7.683 7.683 0 011.976 5.14 7.683 7.683 0 01-1.976 5.14l-5.14-5.14zm-9.189 0V3.323L4.944 5.55a8.537 8.537 0 00-2.228 5.748c0 2.212.849 4.224 2.228 5.747l-2.228 2.228v-7.975zm8.582 8.582H3.323l2.227-2.228a8.538 8.538 0 005.748 2.227 8.538 8.538 0 005.747-2.227l2.228 2.227h-7.975zm8.582-8.582v7.975l-2.228-2.228a8.538 8.538 0 002.227-5.747 8.538 8.538 0 00-2.227-5.748l2.227-2.227v7.975z" fill="#DC8962"/><path d="M20.738 20.13h-.2v.084l.058.058.142-.141zm0-17.665l-.142-.141-.058.058v.083h.2zm.732-.733l.142.142-.142-.142zm0-.606l-.141.141.141-.141zm-.607 0l.142.141-.142-.141zm-.732.732v.2h.083L20.272 2l-.141-.142zm-17.666 0L2.324 2l.058.058h.083v-.2zm-.733-.732l-.141.141.141-.141zm-.606.606l.141-.141-.141.141zm.732.733h.2v-.083L2 2.323l-.142.142zm0 17.666l.142.141.058-.058v-.083h-.2zm-.732.732l.141.142-.141-.142zm0 .607l.141-.141-.141.141zm.606 0l.142.142-.142-.142zm.733-.732v-.2h-.083l-.058.058.14.142zm17.666 0l.141-.142-.058-.058h-.083v.2zm.732.732l-.141.142.141-.142zm.607 0l.142.142-.142-.142zm0-.607l-.141.142.141-.142zM19.273 2.716l.141.142.342-.342h-.483v.2zm-2.228 2.228l-.134.148.141.128.135-.135-.142-.141zm-11.495 0l-.141.141.135.135.14-.128-.134-.148zM3.323 2.716v-.2H2.84l.342.342.141-.142zm7.368 8.582l.142.141.141-.141-.141-.142-.142.142zm-5.14 5.14l-.15.134.141.158.15-.15-.142-.141zm0-10.28l.14-.142-.149-.15-.14.158.148.133zm.606-.608l-.133-.149-.158.141.15.15.141-.142zm10.282 0l.141.142.15-.15-.158-.14-.133.148zm-5.141 5.141l-.142.142.142.141.141-.141-.141-.142zm0 1.214l.141-.142-.141-.141-.142.141.142.142zm5.14 5.14l.134.15.158-.142-.15-.149-.141.142zm-10.28 0l-.142-.14-.15.148.158.142.133-.15zm5.747-5.747l-.142-.142-.141.142.141.141.142-.141zm5.14-5.14l.15-.134-.142-.158-.149.15.142.141zm0 10.28l-.14.142.148.15.142-.158-.15-.133zM2.716 3.324l.142-.141-.342-.342v.483h.2zM4.944 5.55l.148.135.128-.141-.135-.135-.141.141zm0 11.495l.141.142.135-.135-.128-.14-.148.133zm-2.228 2.228h-.2v.483l.342-.342-.142-.141zm.607.607l-.141-.142-.342.341h.483v-.2zm2.227-2.228l.135-.148-.141-.128-.135.135.141.141zm11.495 0l.142-.141-.135-.135-.14.128.133.148zm2.228 2.227v.2h.483l-.342-.341-.141.142zm.607-.606l-.142.141.341.342v-.483h-.2zm-2.228-2.228l-.148-.134-.128.141.135.135.141-.142zm0-11.495l-.141-.141-.135.135.128.14.148-.134zm2.227-2.227h.2V2.84l-.341.342.142.141zm1.059 16.808V2.465h-.4V20.13h.4zm-.059-17.525l.732-.732-.282-.283-.733.733.283.282zm.732-.732a.629.629 0 000-.89l-.282.283c.09.09.09.235 0 .324l.282.283zm0-.89a.629.629 0 00-.89 0l.284.283c.09-.09.234-.09.324 0l.282-.283zm-.89 0l-.732.733.283.283.733-.733-.283-.283zm-.59.674H2.465v.4H20.13v-.4zm-17.525.059L1.874.984l-.283.283.733.733.282-.283zM1.874.984a.629.629 0 00-.89 0l.283.283c.09-.09.235-.09.324 0l.283-.283zm-.89 0a.629.629 0 000 .89l.283-.283a.229.229 0 010-.324L.984.984zm0 .89l.733.732L2 2.323l-.733-.732-.283.283zm.674.59v17.667h.4V2.465h-.4zm.059 17.526l-.733.732.283.283.733-.733-.283-.282zm-.733.732a.629.629 0 000 .89l.283-.283a.229.229 0 010-.324l-.283-.283zm0 .89a.628.628 0 00.445.184v-.4a.228.228 0 01-.162-.067l-.283.282zm.445.184c.16 0 .322-.062.445-.184l-.283-.283a.228.228 0 01-.162.067v.4zm.445-.184l.732-.733-.282-.283-.733.733.283.282zm.59-.674h17.667v-.4H2.465v.4zm17.526-.059l.732.732.283-.282-.733-.733-.282.283zm.732.732a.628.628 0 00.445.185v-.4a.228.228 0 01-.162-.067l-.283.282zm.445.185c.16 0 .322-.062.444-.184l-.282-.283a.227.227 0 01-.162.067v.4zm.445-.184a.629.629 0 000-.89l-.283.283c.09.09.09.234 0 .324l.283.282zm0-.89l-.733-.733-.283.283.733.733.283-.283zM11.298 2.916h7.975v-.4h-7.975v.4zm7.833-.341l-2.227 2.227.283.283 2.227-2.227-.283-.283zm-1.951 2.22a8.737 8.737 0 00-5.882-2.279v.4c2.16 0 4.125.828 5.613 2.176l.269-.297zm-5.882-2.279a8.737 8.737 0 00-5.882 2.28l.269.296a8.337 8.337 0 015.613-2.176v-.4zM5.692 4.802L3.464 2.575l-.282.283 2.227 2.227.283-.283zM3.323 2.916h7.975v-.4H3.323v.4zm7.227 8.24l-5.141 5.141.283.283 5.14-5.14-.282-.284zm-4.85 5.15a7.483 7.483 0 01-1.926-5.008h-.4c0 2.027.772 3.872 2.027 5.274l.298-.267zm-1.926-5.008c0-1.923.732-3.675 1.925-5.008l-.298-.266a7.883 7.883 0 00-2.027 5.274h.4zm1.635-5l5.14 5.141.284-.283-5.141-5.14-.283.282zM6.29 5.7a7.483 7.483 0 015.008-1.925v-.4a7.883 7.883 0 00-5.274 2.027l.266.298zm5.008-1.925c1.923 0 3.675.732 5.007 1.925l.267-.298a7.883 7.883 0 00-5.274-2.027v.4zm5 1.635l-5.141 5.14.282.284 5.141-5.141-.283-.283zm-4.859 5.14L6.3 5.41l-.283.283 5.14 5.14.283-.282zm-.283 1.497l5.141 5.14.283-.282-5.14-5.14-.284.282zm5.15 4.85a7.483 7.483 0 01-5.008 1.925v.4a7.883 7.883 0 005.274-2.026l-.267-.299zm-5.008 1.925a7.483 7.483 0 01-5.008-1.925l-.266.299a7.883 7.883 0 005.274 2.026v-.4zm-5-1.634l5.141-5.14-.283-.284-5.14 5.141.282.283zm5.748-5.748l5.14-5.14-.282-.283-5.14 5.14.282.283zm4.85-5.149a7.483 7.483 0 011.925 5.008h.4a7.883 7.883 0 00-2.026-5.274l-.299.266zm1.925 5.008a7.483 7.483 0 01-1.925 5.007l.299.267a7.883 7.883 0 002.026-5.274h-.4zm-1.634 5l-5.14-5.141-.284.282 5.141 5.141.283-.283zm-14.27-5V3.323h-.4v7.975h.4zm-.342-7.834l2.227 2.228.283-.283-2.227-2.227-.283.282zm2.22 1.952a8.737 8.737 0 00-2.279 5.882h.4c0-2.16.828-4.125 2.176-5.613l-.297-.269zm-2.279 5.882c0 2.264.869 4.324 2.28 5.882l.296-.269a8.337 8.337 0 01-2.176-5.613h-.4zm2.286 5.606l-2.227 2.227.283.283 2.227-2.227-.283-.283zm-1.886 2.369v-7.975h-.4v7.975h.4zm8.382.407H3.323v.4h7.975v-.4zm-7.834.34l2.228-2.226-.283-.283-2.227 2.227.282.283zm1.952-2.22a8.738 8.738 0 005.882 2.28v-.4a8.337 8.337 0 01-5.613-2.176l-.269.296zm5.882 2.28a8.738 8.738 0 005.882-2.28l-.269-.296a8.337 8.337 0 01-5.613 2.175v.4zm5.606-2.286l2.227 2.227.283-.283-2.227-2.227-.283.283zm2.369 1.886h-7.975v.4h7.975v-.4zm.407-8.382v7.975h.4v-7.975h-.4zm.34 7.833l-2.226-2.227-.283.283 2.227 2.227.283-.283zM17.8 17.18a8.738 8.738 0 002.28-5.882h-.4c0 2.16-.828 4.125-2.176 5.613l.296.269zm2.28-5.882a8.738 8.738 0 00-2.28-5.882l-.296.269a8.337 8.337 0 012.175 5.613h.4zm-2.286-5.606l2.227-2.228-.283-.282-2.227 2.227.283.283zm1.886-2.369v7.975h.4V3.323h-.4z" fill="#DC8962" mask="url(#a)"/></svg>