<svg width="25" height="18" viewBox="0 0 25 18" fill="none" xmlns="http://www.w3.org/2000/svg">
<path d="M22.2657 7.68214H9.35682C4.63832 7.68209 0.8 11.5204 0.8 16.2389C0.8 16.6211 1.10942 16.9305 1.49159 16.9305H24.1042C24.3033 16.9305 24.4932 16.8448 24.6245 16.6946L24.6245 16.6946C24.7557 16.5443 24.8161 16.3452 24.7897 16.1477C24.7897 16.1477 24.7897 16.1476 24.7897 16.1476L22.9938 2.68016C22.8509 1.60771 21.9285 0.8 20.8465 0.8H9.35682C8.97465 0.8 8.66523 1.10942 8.66523 1.49159C8.66523 1.87377 8.97465 2.18319 9.35682 2.18319H20.8465C21.237 2.18319 21.5713 2.47579 21.6228 2.86265L21.6228 2.86267L22.2657 7.68214ZM22.4501 9.06523L23.3141 15.5473H2.21636C2.56547 11.9151 5.635 9.06523 9.35682 9.06523H22.4501Z" fill="#DC8962" stroke="#DC8962" stroke-width="0.4"/>
<path d="M12.7976 13.4895C13.451 13.4895 13.9807 12.9598 13.9807 12.3064C13.9807 11.653 13.451 11.1232 12.7976 11.1232C12.1442 11.1232 11.6145 11.653 11.6145 12.3064C11.6145 12.9598 12.1442 13.4895 12.7976 13.4895Z" fill="#DC8962" stroke="#DC8962" stroke-width="0.4"/>
</svg>
