<svg width="30" height="20" fill="none" xmlns="http://www.w3.org/2000/svg"><mask id="a" maskUnits="userSpaceOnUse" x="0" y="0" width="30" height="20" fill="#000"><path fill="#fff" d="M0 0h30v20H0z"/><path d="M28.53 1.012a.588.588 0 00-.685.458l-.802 4.01c-.34-.175-.609-.454-.916-.79-.554-.604-1.243-1.356-2.57-1.356-1.326 0-2.014.752-2.568 1.357-.499.545-.894.976-1.705.976-.813 0-1.207-.43-1.707-.976-.554-.605-1.243-1.357-2.569-1.357-1.325 0-2.014.752-2.567 1.356-.501.546-.897.977-1.709.977-.813 0-1.21-.43-1.711-.977-.554-.604-1.244-1.356-2.571-1.356-1.328 0-2.017.752-2.57 1.356-.31.337-.58.617-.922.791L2.156 1.47a.582.582 0 10-1.144.229L4.23 17.79a2.34 2.34 0 002.288 1.875h16.964a2.34 2.34 0 002.288-1.875l3.218-16.092a.582.582 0 00-.458-.687zm-3.904 16.55a1.17 1.17 0 01-1.144.938H6.518a1.17 1.17 0 01-1.144-.938L3.191 6.648c.689-.254 1.144-.73 1.547-1.17.502-.546.898-.977 1.712-.977s1.21.432 1.712.978c.554.604 1.244 1.355 2.57 1.355 1.326 0 2.016-.752 2.57-1.356.5-.546.894-.977 1.706-.977.812 0 1.208.431 1.709.977.553.604 1.242 1.356 2.567 1.356 1.325 0 2.013-.752 2.567-1.356.5-.546.894-.977 1.706-.977.813 0 1.208.431 1.71.977.401.44.856.916 1.542 1.17l-2.183 10.914z"/></mask><path d="M28.53 1.012a.588.588 0 00-.685.458l-.802 4.01c-.34-.175-.609-.454-.916-.79-.554-.604-1.243-1.356-2.57-1.356-1.326 0-2.014.752-2.568 1.357-.499.545-.894.976-1.705.976-.813 0-1.207-.43-1.707-.976-.554-.605-1.243-1.357-2.569-1.357-1.325 0-2.014.752-2.567 1.356-.501.546-.897.977-1.709.977-.813 0-1.21-.43-1.711-.977-.554-.604-1.244-1.356-2.571-1.356-1.328 0-2.017.752-2.57 1.356-.31.337-.58.617-.922.791L2.156 1.47a.582.582 0 10-1.144.229L4.23 17.79a2.34 2.34 0 002.288 1.875h16.964a2.34 2.34 0 002.288-1.875l3.218-16.092a.582.582 0 00-.458-.687zm-3.904 16.55a1.17 1.17 0 01-1.144.938H6.518a1.17 1.17 0 01-1.144-.938L3.191 6.648c.689-.254 1.144-.73 1.547-1.17.502-.546.898-.977 1.712-.977s1.21.432 1.712.978c.554.604 1.244 1.355 2.57 1.355 1.326 0 2.016-.752 2.57-1.356.5-.546.894-.977 1.706-.977.812 0 1.208.431 1.709.977.553.604 1.242 1.356 2.567 1.356 1.325 0 2.013-.752 2.567-1.356.5-.546.894-.977 1.706-.977.813 0 1.208.431 1.71.977.401.44.856.916 1.542 1.17l-2.183 10.914z" fill="#DC8962"/><path d="M28.53 1.012a.588.588 0 00-.685.458l-.802 4.01c-.34-.175-.609-.454-.916-.79-.554-.604-1.243-1.356-2.57-1.356-1.326 0-2.014.752-2.568 1.357-.499.545-.894.976-1.705.976-.813 0-1.207-.43-1.707-.976-.554-.605-1.243-1.357-2.569-1.357-1.325 0-2.014.752-2.567 1.356-.501.546-.897.977-1.709.977-.813 0-1.21-.43-1.711-.977-.554-.604-1.244-1.356-2.571-1.356-1.328 0-2.017.752-2.57 1.356-.31.337-.58.617-.922.791L2.156 1.47a.582.582 0 10-1.144.229L4.23 17.79a2.34 2.34 0 002.288 1.875h16.964a2.34 2.34 0 002.288-1.875l3.218-16.092a.582.582 0 00-.458-.687zm-3.904 16.55a1.17 1.17 0 01-1.144.938H6.518a1.17 1.17 0 01-1.144-.938L3.191 6.648c.689-.254 1.144-.73 1.547-1.17.502-.546.898-.977 1.712-.977s1.21.432 1.712.978c.554.604 1.244 1.355 2.57 1.355 1.326 0 2.016-.752 2.57-1.356.5-.546.894-.977 1.706-.977.812 0 1.208.431 1.709.977.553.604 1.242 1.356 2.567 1.356 1.325 0 2.013-.752 2.567-1.356.5-.546.894-.977 1.706-.977.813 0 1.208.431 1.71.977.401.44.856.916 1.542 1.17l-2.183 10.914z" stroke="#DC8962" stroke-width=".6" mask="url(#a)"/><path d="M14.176 14.528h-1.12V16h-.576v-1.472H9.32v-.416l2.968-3.712h.64l-2.864 3.616h2.432V12.72h.56v1.296h1.12v.512zm2.761 1.52c-.432 0-.819-.115-1.16-.344-.336-.23-.6-.557-.792-.984-.187-.432-.28-.939-.28-1.52 0-.581.093-1.085.28-1.512.192-.432.456-.763.792-.992.341-.23.728-.344 1.16-.344.432 0 .816.115 1.152.344.341.23.608.56.8.992.192.427.288.93.288 1.512 0 .581-.096 1.088-.288 1.52-.192.427-.459.755-.8.984-.336.23-.72.344-1.152.344zm0-.528c.325 0 .61-.09.856-.272.25-.181.445-.445.584-.792.139-.347.208-.765.208-1.256 0-.49-.07-.91-.208-1.256-.139-.347-.333-.61-.584-.792a1.402 1.402 0 00-.856-.272c-.325 0-.613.09-.864.272-.245.181-.437.445-.576.792-.139.347-.208.765-.208 1.256 0 .49.07.91.208 1.256.139.347.33.61.576.792.25.181.539.272.864.272z" fill="#DC8962"/><path d="M14.176 14.528v.2a.2.2 0 00.2-.2h-.2zm-1.12 0v-.2a.2.2 0 00-.2.2h.2zm0 1.472v.2a.2.2 0 00.2-.2h-.2zm-.576 0h-.2c0 .11.09.2.2.2V16zm0-1.472h.2a.2.2 0 00-.2-.2v.2zm-3.16 0h-.2c0 .11.09.2.2.2v-.2zm0-.416l-.156-.125a.2.2 0 00-.044.125h.2zm2.968-3.712v-.2a.2.2 0 00-.156.075l.156.125zm.64 0l.157.124a.2.2 0 00-.157-.324v.2zm-2.864 3.616l-.157-.124a.2.2 0 00.157.324v-.2zm2.432 0v.2a.2.2 0 00.2-.2h-.2zm0-1.296v-.2a.2.2 0 00-.2.2h.2zm.56 0h.2a.2.2 0 00-.2-.2v.2zm0 1.296h-.2c0 .11.09.2.2.2v-.2zm1.12 0h.2a.2.2 0 00-.2-.2v.2zm0 .312h-1.12v.4h1.12v-.4zm-1.32.2V16h.4v-1.472h-.4zm.2 1.272h-.576v.4h.576v-.4zm-.376.2v-1.472h-.4V16h.4zm-.2-1.672H9.32v.4h3.16v-.4zm-2.96.2v-.416h-.4v.416h.4zm-.044-.291l2.968-3.712-.312-.25-2.968 3.712.312.25zm2.812-3.637h.64v-.4h-.64v.4zm.483-.324l-2.864 3.616.314.248 2.864-3.616-.314-.248zm-2.707 3.94h2.432v-.4h-2.432v.4zm2.632-.2V12.72h-.4v1.296h.4zm-.2-1.096h.56v-.4h-.56v.4zm.36-.2v1.296h.4V12.72h-.4zm.2 1.496h1.12v-.4h-1.12v.4zm.92-.2v.512h.4v-.512h-.4zm1.801 1.688l-.113.165.002.001.111-.166zm-.792-.984l-.184.08.002.002.182-.082zm0-3.032l-.183-.081.183.081zm.792-.992l-.111-.166h-.002l.113.166zm2.312 0l-.113.165.002.001.111-.166zm.8.992l-.183.081v.001l.183-.082zm0 3.032l.182.082-.182-.082zm-.8.984l-.111-.166h-.002l.113.166zm-.296-.456l-.117-.162-.002.001.12.161zm.584-.792l.186.074-.186-.074zm0-2.512l.186-.074-.186.074zm-.584-.792l-.119.16.002.002.117-.162zm-1.72 0l-.117-.162-.002.001.12.161zm-.576.792l.186.074-.186-.074zm0 2.512l.186-.074-.186.074zm.576.792l-.119.16.002.002.117-.162zm.864.6c-.394 0-.742-.104-1.048-.31l-.223.332c.376.253.802.378 1.271.378v-.4zm-1.047-.31c-.301-.205-.543-.502-.723-.9l-.364.164c.204.455.49.814.861 1.067l.226-.33zm-.721-.897c-.174-.402-.264-.88-.264-1.441h-.4c0 .602.097 1.137.296 1.6l.368-.16zm-.264-1.441c0-.56.09-1.036.263-1.432l-.366-.16c-.2.457-.297.99-.297 1.592h.4zm.263-1.43c.18-.404.421-.704.722-.909l-.226-.33c-.371.253-.657.615-.862 1.076l.366.162zm.72-.908c.307-.206.655-.31 1.05-.31v-.4c-.47 0-.896.125-1.272.378l.223.332zm1.05-.31c.393 0 .738.104 1.038.31l.226-.331a2.195 2.195 0 00-1.265-.379v.4zm1.04.31c.305.205.55.504.728.907l.366-.162c-.205-.461-.494-.824-.871-1.077l-.224.332zm.729.908c.178.396.27.87.27 1.43h.4c0-.603-.1-1.136-.306-1.594l-.364.164zm.27 1.43c0 .56-.092 1.038-.27 1.439l.365.162c.206-.463.305-.998.305-1.601h-.4zm-.27 1.438c-.18.397-.423.694-.73.9l.224.332c.376-.253.665-.612.87-1.068l-.364-.164zm-.73.9c-.301.206-.646.31-1.04.31v.4c.47 0 .893-.125 1.265-.379l-.226-.33zm-1.04.182a1.6 1.6 0 00.975-.311l-.238-.322a1.202 1.202 0 01-.737.233v.4zm.973-.31c.287-.208.503-.505.653-.88l-.372-.148c-.127.319-.301.549-.515.704l.234.324zm.653-.88c.15-.376.222-.821.222-1.33h-.4c0 .473-.067.865-.194 1.182l.372.148zm.222-1.33c0-.508-.072-.954-.222-1.33l-.372.148c.127.317.194.71.194 1.182h.4zm-.222-1.33c-.15-.375-.366-.672-.653-.88l-.234.324c.214.155.388.385.515.704l.372-.148zm-.651-.879a1.6 1.6 0 00-.975-.311v.4c.286 0 .529.079.737.233l.238-.322zm-.975-.311c-.365 0-.695.103-.981.31l.234.324c.215-.155.461-.234.747-.234v-.4zm-.983.311c-.281.208-.493.505-.643.879l.372.148c.128-.32.3-.55.509-.705l-.238-.322zm-.643.879c-.15.376-.222.822-.222 1.33h.4c0-.473.067-.865.194-1.182l-.372-.148zm-.222 1.33c0 .509.072.954.222 1.33l.372-.148c-.127-.317-.194-.71-.194-1.182h-.4zm.222 1.33c.15.374.362.67.643.879l.238-.322c-.21-.155-.381-.385-.51-.705l-.37.148zm.645.88c.286.207.616.31.981.31v-.4c-.286 0-.532-.079-.747-.234l-.234.324z" fill="#DC8962"/><circle cx="21.456" cy="10.461" r=".937" stroke="#DC8962" stroke-width=".5"/></svg>