<svg width="18" height="19" viewBox="0 0 18 19" fill="none" xmlns="http://www.w3.org/2000/svg">
<path d="M8.9371 2.53075C11.2817 2.53075 11.5593 2.54103 12.4814 2.58216C13.3383 2.61987 13.8011 2.76383 14.1096 2.8838C14.5175 3.04148 14.8122 3.23343 15.1173 3.5385C15.4258 3.84699 15.6143 4.13835 15.772 4.54625C15.892 4.85475 16.0359 5.32092 16.0736 6.17442C16.1148 7.09991 16.1251 7.37756 16.1251 9.7187C16.1251 12.0633 16.1148 12.3409 16.0736 13.263C16.0359 14.1199 15.892 14.5827 15.772 14.8911C15.6143 15.299 15.4224 15.5938 15.1173 15.8989C14.8088 16.2074 14.5175 16.3959 14.1096 16.5536C13.8011 16.6736 13.3349 16.8175 12.4814 16.8552C11.5559 16.8964 11.2782 16.9067 8.9371 16.9067C6.59253 16.9067 6.31489 16.8964 5.39283 16.8552C4.5359 16.8175 4.07315 16.6736 3.76466 16.5536C3.35676 16.3959 3.06197 16.204 2.7569 15.8989C2.44841 15.5904 2.25988 15.299 2.10221 14.8911C1.98223 14.5827 1.83827 14.1165 1.80057 13.263C1.75943 12.3375 1.74915 12.0598 1.74915 9.7187C1.74915 7.37413 1.75943 7.09648 1.80057 6.17442C1.83827 5.31749 1.98223 4.85475 2.10221 4.54625C2.25988 4.13835 2.45183 3.84357 2.7569 3.5385C3.0654 3.23 3.35676 3.04148 3.76466 2.8838C4.07315 2.76383 4.53932 2.61987 5.39283 2.58216C6.31489 2.54103 6.59253 2.53075 8.9371 2.53075ZM8.9371 0.950562C6.55483 0.950562 6.25662 0.960845 5.32085 1.00198C4.3885 1.04311 3.74752 1.19393 3.19222 1.40988C2.61294 1.63611 2.12277 1.93432 1.63603 2.42449C1.14587 2.91122 0.847656 3.40139 0.621425 3.97725C0.405478 4.53597 0.254658 5.17353 0.213525 6.10587C0.172393 7.04507 0.162109 7.34328 0.162109 9.72555C0.162109 12.1078 0.172393 12.406 0.213525 13.3418C0.254658 14.2742 0.405478 14.9151 0.621425 15.4704C0.847656 16.0497 1.14587 16.5399 1.63603 17.0266C2.12277 17.5134 2.61294 17.815 3.1888 18.0378C3.74752 18.2537 4.38508 18.4046 5.31742 18.4457C6.25319 18.4868 6.5514 18.4971 8.93367 18.4971C11.3159 18.4971 11.6142 18.4868 12.5499 18.4457C13.4823 18.4046 14.1233 18.2537 14.6786 18.0378C15.2544 17.815 15.7446 17.5134 16.2313 17.0266C16.7181 16.5399 17.0197 16.0497 17.2425 15.4739C17.4584 14.9151 17.6093 14.2776 17.6504 13.3452C17.6915 12.4095 17.7018 12.1113 17.7018 9.72898C17.7018 7.34671 17.6915 7.0485 17.6504 6.11273C17.6093 5.18038 17.4584 4.5394 17.2425 3.9841C17.0266 3.40139 16.7283 2.91122 16.2382 2.42449C15.7514 1.93775 15.2613 1.63611 14.6854 1.41331C14.1267 1.19736 13.4891 1.04654 12.5568 1.00541C11.6176 0.960845 11.3194 0.950562 8.9371 0.950562Z" fill="white"/>
<path d="M8.93618 5.21814C6.44765 5.21814 4.42871 7.23707 4.42871 9.72561C4.42871 12.2141 6.44765 14.2331 8.93618 14.2331C11.4247 14.2331 13.4436 12.2141 13.4436 9.72561C13.4436 7.23707 11.4247 5.21814 8.93618 5.21814ZM8.93618 12.6495C7.32172 12.6495 6.01232 11.3401 6.01232 9.72561C6.01232 8.11115 7.32172 6.80175 8.93618 6.80175C10.5506 6.80175 11.86 8.11115 11.86 9.72561C11.86 11.3401 10.5506 12.6495 8.93618 12.6495Z" fill="white"/>
<path d="M14.6749 5.03974C14.6749 5.62246 14.2019 6.09206 13.6226 6.09206C13.0399 6.09206 12.5703 5.61903 12.5703 5.03974C12.5703 4.45703 13.0433 3.98743 13.6226 3.98743C14.2019 3.98743 14.6749 4.46045 14.6749 5.03974Z" fill="white"/>
</svg>
