<svg width="33" height="46" viewBox="0 0 33 46" fill="none" xmlns="http://www.w3.org/2000/svg">
<path d="M28.2259 13.0993H26.6068V10.7425C26.6066 5.27068 22.1942 0.81958 16.7706 0.81958C11.347 0.81958 6.93441 5.2713 6.93441 10.7425V13.0993H5.31533C2.68286 13.0993 0.541016 15.2601 0.541016 17.9159V40.3636C0.541016 43.02 2.68286 45.1802 5.31533 45.1802H28.2257C30.8582 45.1802 33 43.0198 33 40.3636V17.9159C33 15.2601 30.8582 13.0993 28.2259 13.0993ZM10.0491 10.7425C10.0491 7.00362 13.0642 3.96188 16.7706 3.96188C20.4767 3.96188 23.4917 7.00362 23.4917 10.7425V13.0993H10.0491V10.7425ZM29.8855 40.3636C29.8855 41.2875 29.1407 42.0379 28.2259 42.0379H5.31513C4.39997 42.0379 3.65553 41.2869 3.65553 40.3636V17.9159C3.65553 16.9926 4.39997 16.2416 5.31513 16.2416H6.9342V18.4449C6.43374 18.8848 6.11095 19.5253 6.11095 20.2481C6.11095 21.5746 7.17675 22.6503 8.49166 22.6503C9.80616 22.6503 10.8724 21.5746 10.8724 20.2481C10.8724 19.526 10.5494 18.8854 10.0491 18.4449V16.2416H23.4917V18.4449C22.9913 18.8848 22.6685 19.5253 22.6685 20.2481C22.6685 21.5746 23.7343 22.6503 25.0492 22.6503C26.3641 22.6503 27.4299 21.5746 27.4299 20.2481C27.4299 19.526 27.1069 18.8848 26.6066 18.4449V16.2416H28.2257C29.1409 16.2416 29.8853 16.9926 29.8853 17.9159L29.8855 40.3636Z" fill="#C96829"/>
<path d="M17.3899 22.1963V36.2619" stroke="#C96829" stroke-width="2" stroke-linecap="round"/>
<path d="M11.9805 31.5732L17.3903 36.2618L22.8001 31.5732" stroke="#C96829" stroke-width="2" stroke-linecap="round"/>
</svg>
