<svg width="170" height="62" viewBox="0 0 170 62" fill="none" xmlns="http://www.w3.org/2000/svg">
<path d="M27.5407 49.3366C26.5113 52.5551 21.735 55.1035 17.7981 54.333C15.6604 53.9136 13.3279 53.6765 11.7559 51.6889C12.6602 51.0142 13.4485 51.3561 14.1858 51.5476C15.09 51.7801 15.9664 51.8621 16.8614 51.5795C17.9882 51.2239 19.2403 51.0005 19.1985 49.4323C19.1568 47.978 17.9697 47.8823 16.931 47.586C11.3015 45.9813 8.64441 41.1216 10.2164 35.5279C10.7914 33.4765 11.5194 32.5647 13.7731 33.8731C16.5136 35.4641 19.3794 35.7832 22.1941 33.7773C23.8913 32.5647 24.6518 31.0968 23.6502 29.1866C22.8201 27.6001 22.8387 26.0456 23.6084 24.564C25.2871 21.3318 24.8512 18.3002 22.7274 15.5284C21.4568 13.8644 21.6377 12.5971 22.9407 11.1064C24.3318 9.52446 24.8837 7.50035 25.4818 5.53094C25.6627 4.92918 25.8574 4.25903 25.2453 3.81227C24.7306 3.43844 24.1417 3.74844 23.7522 4.09035C21.6237 5.96403 18.8276 7.13108 17.6219 9.98946C16.9634 11.5531 12.4144 11.7264 11.9414 10.1718C10.7358 6.24211 7.47585 4.49609 4.35042 2.52668C3.81252 2.18933 3.34417 1.71977 2.7738 1.47816C1.95302 1.13624 1.73972 -0.386398 0.700999 0.0922769C-0.38409 0.593746 0.0935345 1.88389 0.172366 2.78198C0.552611 7.15844 1.04415 11.5395 4.7724 14.6622C5.36132 15.1546 5.51898 15.5922 5.20366 16.2624C4.11857 18.5509 4.40143 20.9808 4.47563 23.3832C4.66111 29.214 4.13712 34.8669 1.98085 40.4423C-0.569576 47.0526 1.54032 54.3148 6.58552 58.4998C10.963 62.1286 19.7272 63.0039 24.8605 60.3461C28.0786 58.6776 29.7944 55.9924 30.4528 52.5551C31.0186 49.601 30.6198 49.1451 27.5639 49.3183C27.5686 49.3138 27.5407 49.3366 27.5407 49.3366Z" fill="#FAF1E9"/>
<path d="M28.0966 41.3228C28.7319 39.0662 27.2759 35.8477 29.4275 33.8829C29.9098 33.4452 30.4801 31.7585 29.3533 31.9682C28.6902 32.0912 27.9529 32.4286 27.3501 32.8799C25.8384 34.0059 24.3266 34.9587 22.393 35.4192C21.3496 35.6654 20.6169 36.6136 20.3202 37.7259C20.0048 38.893 19.402 39.8048 18.2335 40.3609C15.9937 41.4277 17.0371 42.6039 18.303 43.543C21.2337 45.7221 24.7162 45.0611 27.939 41.8197C27.99 41.6511 28.041 41.487 28.0966 41.3228Z" fill="#FAF1E9"/>
<path d="M28.0969 41.3223C28.0413 41.4864 27.9903 41.6505 27.9346 41.8146C28.2778 44.3402 26.2189 45.2748 24.6562 46.4965C23.6128 47.308 21.3916 47.5998 22.2495 49.3275C23.0842 51.0097 25.041 50.2986 26.5806 49.8062C26.9144 49.6968 27.2205 49.4962 27.5405 49.3367C27.5405 49.3367 27.5683 49.3093 27.5683 49.3139C29.2794 47.7502 30.1604 45.8765 30.0909 43.5196C30.0491 42.1201 29.5298 41.3861 28.0969 41.3223Z" fill="#FAF1E9"/>
<path d="M41.7096 50.2507C41.5282 50.4398 41.4348 50.7207 41.4348 51.0989V51.8065H43.3196V52.4926H41.4568V57.8191H40.6326V52.4926H39.5391V51.8065H40.6326V51.061C40.6326 50.51 40.7919 50.0778 41.1161 49.7591C41.4403 49.4404 41.8909 49.2783 42.4844 49.2783C42.7152 49.2783 42.9405 49.3107 43.1603 49.3756C43.3746 49.4404 43.5614 49.5322 43.7043 49.6565L43.424 50.2615C43.1822 50.0616 42.88 49.9644 42.5173 49.9644C42.1602 49.9644 41.8909 50.0616 41.7096 50.2507Z" fill="#FAF1E9"/>
<path d="M45.3522 57.4787C44.8796 57.214 44.506 56.8521 44.2367 56.3875C43.9675 55.9229 43.8301 55.3989 43.8301 54.81C43.8301 54.2212 43.9675 53.6972 44.2367 53.2326C44.506 52.768 44.8796 52.4061 45.3522 52.1468C45.8248 51.8875 46.3578 51.7578 46.9457 51.7578C47.5337 51.7578 48.0667 51.8875 48.5393 52.1468C49.0118 52.4061 49.38 52.768 49.6492 53.2326C49.9185 53.6972 50.0504 54.2212 50.0504 54.81C50.0504 55.3989 49.9185 55.9229 49.6492 56.3875C49.38 56.8521 49.0118 57.2194 48.5393 57.4787C48.0667 57.7434 47.5337 57.8731 46.9457 57.8731C46.3578 57.8731 45.8248 57.7434 45.3522 57.4787ZM48.1162 56.8629C48.4623 56.6684 48.7316 56.3929 48.9239 56.0363C49.1162 55.6798 49.2151 55.2692 49.2151 54.8154C49.2151 54.3563 49.1162 53.9511 48.9239 53.5946C48.7316 53.238 48.4623 52.9625 48.1162 52.768C47.77 52.5735 47.3798 52.4763 46.9457 52.4763C46.5116 52.4763 46.1215 52.5735 45.7753 52.768C45.4291 52.9625 45.1599 53.238 44.962 53.5946C44.7642 53.9511 44.6653 54.3617 44.6653 54.8154C44.6653 55.2746 44.7642 55.6798 44.962 56.0363C45.1599 56.3929 45.4291 56.6684 45.7753 56.8629C46.1215 57.0573 46.5116 57.1546 46.9457 57.1546C47.3798 57.1546 47.77 57.0573 48.1162 56.8629Z" fill="#FAF1E9"/>
<path d="M53.5114 52.0657C53.8961 51.8605 54.3686 51.7578 54.9346 51.7578V52.5465L54.7368 52.5357C54.0939 52.5357 53.5883 52.7302 53.2257 53.1192C52.863 53.5081 52.6817 54.0537 52.6817 54.756V57.819H51.8574V51.8064H52.6487V52.9841C52.841 52.5789 53.1268 52.271 53.5114 52.0657Z" fill="#FAF1E9"/>
<path d="M64.7439 52.4169C65.2 52.8545 65.4253 53.4919 65.4253 54.3346V57.8245H64.6011V54.4157C64.6011 53.789 64.4417 53.3136 64.123 52.9841C63.8043 52.6546 63.3537 52.4925 62.7603 52.4925C62.1009 52.4925 61.5788 52.687 61.1942 53.0705C60.8095 53.4541 60.6172 53.9889 60.6172 54.6642V57.819H59.793V51.8064H60.5842V52.9139C60.8095 52.5465 61.1228 52.2656 61.5184 52.0603C61.9195 51.8605 62.3811 51.7578 62.9086 51.7578C63.6834 51.7578 64.2934 51.9793 64.7439 52.4169Z" fill="#FAF1E9"/>
<path d="M73.1354 55.0645H68.0196C68.0635 55.6911 68.3108 56.1935 68.7504 56.5771C69.19 56.9606 69.7505 57.1551 70.4264 57.1551C70.8055 57.1551 71.1572 57.0903 71.4704 56.9552C71.7891 56.8202 72.0639 56.6257 72.2946 56.3664L72.7617 56.8904C72.4925 57.2091 72.1518 57.4522 71.7452 57.6197C71.3385 57.7871 70.8879 57.8682 70.4044 57.8682C69.7779 57.8682 69.2175 57.7385 68.7339 57.4738C68.2503 57.2091 67.8712 56.8472 67.6019 56.3826C67.3327 55.918 67.1953 55.394 67.1953 54.8052C67.1953 54.2163 67.3272 53.6923 67.5855 53.2277C67.8437 52.7631 68.2009 52.4012 68.657 52.1419C69.1131 51.8826 69.6186 51.7529 70.1846 51.7529C70.7506 51.7529 71.2561 51.8826 71.7067 52.1419C72.1573 52.4012 72.509 52.7631 72.7672 53.2223C73.0255 53.6815 73.1519 54.2109 73.1519 54.8052L73.1354 55.0645ZM68.7009 53.0116C68.2998 53.379 68.0745 53.8652 68.0196 54.4594H72.3551C72.3001 53.8652 72.0748 53.3844 71.6737 53.0116C71.2726 52.6443 70.778 52.4552 70.1791 52.4552C69.5966 52.4552 69.1021 52.6443 68.7009 53.0116Z" fill="#FAF1E9"/>
<path d="M83.8112 51.8066L81.4978 57.8192H80.7175L78.7888 52.8925L76.86 57.8192H76.0797L73.7773 51.8066H74.5686L76.4864 56.9171L78.4536 51.8066H79.1624L81.1186 56.9171L83.0584 51.8066H83.8112Z" fill="#FAF1E9"/>
<path d="M89.8827 52.1416C90.3497 52.3955 90.7124 52.7575 90.9762 53.222C91.2399 53.6866 91.3718 54.216 91.3718 54.8103C91.3718 55.4045 91.2399 55.9339 90.9762 56.3985C90.7124 56.8631 90.3497 57.2251 89.8827 57.4844C89.4156 57.7437 88.8991 57.8733 88.3221 57.8733C87.8111 57.8733 87.3495 57.7653 86.9428 57.5546C86.5362 57.3439 86.2065 57.0306 85.9592 56.6308V57.8193H85.168V49.3379H85.9922V52.9519C86.2505 52.563 86.5747 52.2659 86.9758 52.066C87.377 51.8661 87.822 51.7635 88.3166 51.7635C88.8991 51.7581 89.4156 51.8877 89.8827 52.1416ZM89.4266 56.8631C89.7783 56.6686 90.0475 56.3931 90.2453 56.0366C90.4432 55.68 90.5421 55.2695 90.5421 54.8157C90.5421 54.3565 90.4432 53.9513 90.2453 53.5948C90.0475 53.2383 89.7728 52.9627 89.4266 52.7683C89.0749 52.5738 88.6903 52.4765 88.2616 52.4765C87.8275 52.4765 87.4374 52.5738 87.0912 52.7683C86.745 52.9627 86.4758 53.2383 86.278 53.5948C86.0801 53.9513 85.9812 54.3619 85.9812 54.8157C85.9812 55.2749 86.0801 55.68 86.278 56.0366C86.4758 56.3931 86.745 56.6686 87.0912 56.8631C87.4374 57.0576 87.8275 57.1548 88.2616 57.1548C88.6903 57.1548 89.0804 57.0576 89.4266 56.8631Z" fill="#FAF1E9"/>
<path d="M94.0807 57.4787C93.6081 57.214 93.2345 56.8521 92.9652 56.3875C92.696 55.9229 92.5586 55.3989 92.5586 54.81C92.5586 54.2212 92.696 53.6972 92.9652 53.2326C93.2345 52.768 93.6081 52.4061 94.0807 52.1468C94.5533 51.8875 95.0863 51.7578 95.6742 51.7578C96.2622 51.7578 96.7952 51.8875 97.2678 52.1468C97.7404 52.4061 98.1085 52.768 98.3778 53.2326C98.647 53.6972 98.7789 54.2212 98.7789 54.81C98.7789 55.3989 98.647 55.9229 98.3778 56.3875C98.1085 56.8521 97.7404 57.2194 97.2678 57.4787C96.7952 57.7434 96.2622 57.8731 95.6742 57.8731C95.0863 57.8731 94.5533 57.7434 94.0807 57.4787ZM96.8447 56.8629C97.1909 56.6684 97.4601 56.3929 97.6524 56.0363C97.8448 55.6798 97.9437 55.2692 97.9437 54.8154C97.9437 54.3563 97.8448 53.9511 97.6524 53.5946C97.4601 53.238 97.1909 52.9625 96.8447 52.768C96.4985 52.5735 96.1083 52.4763 95.6742 52.4763C95.2401 52.4763 94.85 52.5735 94.5038 52.768C94.1576 52.9625 93.8884 53.238 93.6906 53.5946C93.4927 53.9511 93.3938 54.3617 93.3938 54.8154C93.3938 55.2746 93.4927 55.6798 93.6906 56.0363C93.8884 56.3929 94.1576 56.6684 94.5038 56.8629C94.85 57.0573 95.2401 57.1546 95.6742 57.1546C96.1083 57.1546 96.4985 57.0573 96.8447 56.8629Z" fill="#FAF1E9"/>
<path d="M102.242 52.0657C102.627 51.8605 103.099 51.7578 103.665 51.7578V52.5465L103.467 52.5357C102.824 52.5357 102.319 52.7302 101.956 53.1192C101.593 53.5081 101.412 54.0537 101.412 54.756V57.819H100.588V51.8064H101.379V52.9841C101.566 52.5789 101.857 52.271 102.242 52.0657Z" fill="#FAF1E9"/>
<path d="M110.221 52.4169C110.677 52.8545 110.902 53.4919 110.902 54.3346V57.8245H110.078V54.4157C110.078 53.789 109.918 53.3136 109.6 52.9841C109.281 52.6546 108.83 52.4925 108.237 52.4925C107.577 52.4925 107.055 52.687 106.671 53.0705C106.286 53.4541 106.094 53.9889 106.094 54.6642V57.819H105.27V51.8064H106.061V52.9139C106.286 52.5465 106.599 52.2656 106.995 52.0603C107.396 51.8605 107.858 51.7578 108.385 51.7578C109.154 51.7578 109.764 51.9793 110.221 52.4169Z" fill="#FAF1E9"/>
<path d="M113.474 57.6629C113.018 57.5224 112.666 57.3442 112.408 57.1335L112.782 56.4906C113.04 56.6905 113.359 56.8526 113.749 56.9768C114.139 57.1011 114.54 57.1659 114.958 57.1659C115.518 57.1659 115.93 57.0795 116.194 56.9066C116.464 56.7337 116.595 56.496 116.595 56.1827C116.595 55.9612 116.524 55.7883 116.376 55.6641C116.227 55.5398 116.04 55.4426 115.815 55.3778C115.59 55.313 115.293 55.2481 114.919 55.1887C114.425 55.0969 114.024 55.005 113.722 54.9078C113.419 54.8105 113.161 54.6485 112.947 54.4216C112.732 54.1947 112.628 53.876 112.628 53.4708C112.628 52.9684 112.842 52.5579 113.265 52.2337C113.694 51.915 114.287 51.7529 115.046 51.7529C115.441 51.7529 115.837 51.807 116.233 51.9096C116.628 52.0122 116.953 52.1473 117.211 52.3148L116.848 52.9684C116.343 52.6281 115.744 52.4552 115.046 52.4552C114.518 52.4552 114.123 52.547 113.853 52.7307C113.584 52.9144 113.452 53.1521 113.452 53.4492C113.452 53.6761 113.529 53.8598 113.678 54.0002C113.831 54.1353 114.018 54.2379 114.244 54.3027C114.469 54.3676 114.777 54.4324 115.172 54.5026C115.661 54.5945 116.051 54.6863 116.348 54.7781C116.645 54.87 116.892 55.0266 117.106 55.2481C117.315 55.4696 117.42 55.7721 117.42 56.1611C117.42 56.6851 117.194 57.1065 116.749 57.4144C116.304 57.7223 115.683 57.879 114.892 57.879C114.403 57.8736 113.93 57.8087 113.474 57.6629Z" fill="#FAF1E9"/>
<path d="M128.228 57.9436L127.101 56.7983C126.409 57.5222 125.502 57.8842 124.381 57.8842C123.854 57.8842 123.381 57.7977 122.969 57.6249C122.551 57.452 122.232 57.2143 121.996 56.9064C121.765 56.5984 121.645 56.2473 121.645 55.8475C121.645 55.3668 121.798 54.9346 122.112 54.5564C122.419 54.1783 122.947 53.7731 123.694 53.3571C123.304 52.9628 123.04 52.6225 122.892 52.3469C122.744 52.066 122.672 51.7743 122.672 51.461C122.672 50.9478 122.859 50.5372 123.233 50.2239C123.606 49.9106 124.106 49.7539 124.733 49.7539C125.315 49.7539 125.777 49.8944 126.117 50.1753C126.458 50.4562 126.628 50.8451 126.628 51.3421C126.628 51.7365 126.491 52.093 126.222 52.4118C125.953 52.7305 125.48 53.0762 124.815 53.4598L127.046 55.7233C127.293 55.2911 127.475 54.7725 127.59 54.1783L128.266 54.3836C128.118 55.102 127.876 55.7125 127.546 56.2257L128.711 57.4034L128.228 57.9436ZM126.612 56.3121L124.156 53.8325C123.513 54.1891 123.068 54.5132 122.826 54.8049C122.584 55.0966 122.458 55.4208 122.458 55.7773C122.458 56.2095 122.639 56.5606 122.996 56.8253C123.359 57.09 123.832 57.2197 124.419 57.2197C125.321 57.2143 126.051 56.9118 126.612 56.3121ZM123.777 50.6615C123.546 50.8614 123.436 51.1207 123.436 51.4502C123.436 51.6879 123.496 51.9094 123.623 52.1255C123.749 52.3415 123.991 52.6279 124.354 52.9952C124.942 52.6603 125.348 52.374 125.573 52.1363C125.799 51.8986 125.909 51.6393 125.909 51.3583C125.909 51.0558 125.804 50.8127 125.595 50.6345C125.387 50.4562 125.095 50.3643 124.722 50.3643C124.321 50.3643 124.007 50.4616 123.777 50.6615Z" fill="#FAF1E9"/>
<path d="M142.722 52.412C143.162 52.8442 143.381 53.487 143.381 54.3352V57.825H142.557V54.4162C142.557 53.7895 142.403 53.3142 142.096 52.9846C141.788 52.6551 141.359 52.493 140.799 52.493C140.161 52.493 139.661 52.6875 139.299 53.0711C138.936 53.4546 138.755 53.9894 138.755 54.6647V57.8196H137.93V54.4108C137.93 53.7841 137.776 53.3088 137.469 52.9792C137.161 52.6497 136.727 52.4876 136.161 52.4876C135.535 52.4876 135.035 52.6821 134.666 53.0657C134.298 53.4492 134.111 53.984 134.111 54.6593V57.8142H133.287V51.8015H134.078V52.8982C134.293 52.5308 134.6 52.2499 134.985 52.0501C135.375 51.8502 135.82 51.7529 136.32 51.7529C136.831 51.7529 137.276 51.861 137.65 52.0717C138.024 52.2877 138.31 52.6011 138.491 53.0224C138.716 52.6281 139.04 52.3148 139.463 52.0933C139.887 51.8664 140.37 51.7583 140.909 51.7583C141.678 51.7583 142.282 51.9744 142.722 52.412Z" fill="#FAF1E9"/>
<path d="M146.669 57.4787C146.196 57.214 145.822 56.8521 145.553 56.3875C145.284 55.9229 145.146 55.3989 145.146 54.81C145.146 54.2212 145.284 53.6972 145.553 53.2326C145.822 52.768 146.196 52.4061 146.669 52.1468C147.141 51.8875 147.674 51.7578 148.262 51.7578C148.85 51.7578 149.383 51.8875 149.856 52.1468C150.328 52.4061 150.696 52.768 150.966 53.2326C151.235 53.6972 151.367 54.2212 151.367 54.81C151.367 55.3989 151.235 55.9229 150.966 56.3875C150.696 56.8521 150.328 57.2194 149.856 57.4787C149.383 57.7434 148.85 57.8731 148.262 57.8731C147.674 57.8731 147.141 57.7434 146.669 57.4787ZM149.433 56.8629C149.779 56.6684 150.048 56.3929 150.24 56.0363C150.433 55.6798 150.532 55.2692 150.532 54.8154C150.532 54.3563 150.433 53.9511 150.24 53.5946C150.048 53.238 149.779 52.9625 149.433 52.768C149.086 52.5735 148.696 52.4763 148.262 52.4763C147.828 52.4763 147.438 52.5735 147.092 52.768C146.746 52.9625 146.476 53.238 146.278 53.5946C146.081 53.9511 145.982 54.3617 145.982 54.8154C145.982 55.2746 146.081 55.6798 146.278 56.0363C146.476 56.3929 146.746 56.6684 147.092 56.8629C147.438 57.0573 147.828 57.1546 148.262 57.1546C148.696 57.1546 149.086 57.0573 149.433 56.8629Z" fill="#FAF1E9"/>
<path d="M162.609 52.412C163.048 52.8442 163.268 53.487 163.268 54.3352V57.825H162.444V54.4162C162.444 53.7895 162.29 53.3142 161.982 52.9846C161.675 52.6551 161.246 52.493 160.685 52.493C160.048 52.493 159.548 52.6875 159.185 53.0711C158.823 53.4546 158.641 53.9894 158.641 54.6647V57.8196H157.817V54.4108C157.817 53.7841 157.663 53.3088 157.356 52.9792C157.048 52.6497 156.614 52.4876 156.048 52.4876C155.421 52.4876 154.921 52.6821 154.553 53.0657C154.185 53.4492 153.998 53.984 153.998 54.6593V57.8142H153.174V51.8015H153.965V52.8982C154.179 52.5308 154.487 52.2499 154.872 52.0501C155.262 51.8502 155.707 51.7529 156.207 51.7529C156.718 51.7529 157.163 51.861 157.537 52.0717C157.911 52.2877 158.196 52.6011 158.378 53.0224C158.603 52.6281 158.927 52.3148 159.35 52.0933C159.773 51.8664 160.257 51.7583 160.795 51.7583C161.57 51.7583 162.169 51.9744 162.609 52.412Z" fill="#FAF1E9"/>
<path d="M165.839 57.6629C165.383 57.5224 165.032 57.3442 164.773 57.1335L165.147 56.4906C165.405 56.6905 165.724 56.8526 166.114 56.9768C166.504 57.1011 166.905 57.1659 167.323 57.1659C167.884 57.1659 168.296 57.0795 168.559 56.9066C168.829 56.7337 168.961 56.496 168.961 56.1827C168.961 55.9612 168.889 55.7883 168.741 55.6641C168.592 55.5398 168.406 55.4426 168.18 55.3778C167.955 55.313 167.658 55.2481 167.285 55.1887C166.79 55.0969 166.389 55.005 166.087 54.9078C165.785 54.8105 165.526 54.6485 165.312 54.4216C165.098 54.1947 164.993 53.876 164.993 53.4708C164.993 52.9684 165.208 52.5579 165.631 52.2337C166.059 51.915 166.653 51.7529 167.411 51.7529C167.807 51.7529 168.202 51.807 168.598 51.9096C168.994 52.0122 169.318 52.1473 169.576 52.3148L169.213 52.9684C168.708 52.6281 168.109 52.4552 167.411 52.4552C166.884 52.4552 166.488 52.547 166.219 52.7307C165.949 52.9144 165.817 53.1521 165.817 53.4492C165.817 53.6761 165.894 53.8598 166.043 54.0002C166.197 54.1353 166.383 54.2379 166.609 54.3027C166.834 54.3676 167.142 54.4324 167.537 54.5026C168.026 54.5945 168.417 54.6863 168.713 54.7781C169.01 54.87 169.257 55.0266 169.472 55.2481C169.68 55.4696 169.785 55.7721 169.785 56.1611C169.785 56.6851 169.56 57.1065 169.114 57.4144C168.669 57.7223 168.048 57.879 167.257 57.879C166.768 57.8736 166.296 57.8087 165.839 57.6629Z" fill="#FAF1E9"/>
<path d="M44.2432 28.766H45.8477L50.6064 22.856H56.1838L49.5239 30.6675L56.2332 39.4622H50.6393L45.7763 32.7419H44.2432V39.4622H39.6934V14.7852H44.2432V28.766Z" fill="#FAF1E9"/>
<path d="M73.6468 31.1322C73.6468 31.6454 73.6138 32.2612 73.5588 32.6394H61.5853C62.0743 35.0379 63.7833 36.086 65.9263 36.086C67.388 36.086 68.976 35.5025 70.1959 34.4923L72.861 37.3717C70.9432 39.1004 68.5035 39.8891 65.6626 39.8891C60.4863 39.8891 56.8926 36.4263 56.8926 31.2024C56.8926 25.9785 60.3764 22.4131 65.4318 22.4131C70.3003 22.4077 73.6303 25.9569 73.6468 31.1322ZM61.6018 29.5872H69.0804C68.6628 27.4641 67.355 26.2648 65.4043 26.2648C63.2558 26.2648 62.0029 27.5343 61.6018 29.5872Z" fill="#FAF1E9"/>
<path d="M93.3239 28.8849V39.4623H88.774V30.3273C88.774 27.9287 87.5541 26.6106 85.477 26.6106C83.5263 26.6106 81.9053 27.8639 81.9053 30.3651V39.4623H77.3555V22.8561H81.7844V24.8117C82.9878 23.0451 84.8341 22.4131 86.7519 22.4131C90.5874 22.4077 93.3239 25.0331 93.3239 28.8849Z" fill="#FAF1E9"/>
<path d="M109.917 24.7031V22.8502H114.379V38.0843C114.379 43.4162 110.84 46.6359 105.263 46.6359C102.598 46.6359 99.7734 45.9498 97.8721 44.6317L99.4932 40.9799C101.186 42.0765 103.048 42.6761 105.071 42.6761C107.895 42.6761 109.884 41.1365 109.884 38.2734V37.1065C108.736 38.4949 107.027 39.3538 104.691 39.3538C100.576 39.3538 96.916 35.9775 96.916 30.8886C96.916 25.7836 100.576 22.4072 104.691 22.4072C107.038 22.4072 108.763 23.2986 109.917 24.7031ZM101.587 30.8886C101.587 33.2872 103.241 35.2428 105.84 35.2428C108.368 35.2428 110.076 33.3574 110.076 30.8886C110.076 28.4036 108.368 26.5183 105.84 26.5183C103.241 26.5237 101.587 28.4739 101.587 30.8886Z" fill="#FAF1E9"/>
<path d="M134.997 32.3805C134.997 37.626 131.233 39.8841 127.012 39.8841C122.776 39.8841 119.012 37.6206 119.012 32.3805V22.8564H123.562V31.9915C123.562 34.6494 125.045 35.7298 127.012 35.7298C128.963 35.7298 130.463 34.6494 130.463 31.9915V22.8564H134.997V32.3805Z" fill="#FAF1E9"/>
<path d="M151.176 22.7692L150.495 27.2098C149.747 26.8856 148.665 26.6803 147.742 26.6803C145.632 26.6803 144.187 27.9498 144.187 30.4186V39.4619H139.637V22.8556H144.049V24.6707C145.11 23.1095 146.736 22.4072 148.808 22.4072C149.78 22.4072 150.55 22.5477 151.176 22.7692Z" fill="#FAF1E9"/>
<path d="M170.001 32.3805C170.001 37.626 166.236 39.8841 162.016 39.8841C157.78 39.8841 154.016 37.6206 154.016 32.3805V22.8564H158.565V31.9915C158.565 34.6494 160.049 35.7298 162.016 35.7298C163.967 35.7298 165.467 34.6494 165.467 31.9915V22.8564H170.001V32.3805Z" fill="#FAF1E9"/>
</svg>
