<svg width="20" height="21" viewBox="0 0 20 21" fill="none" xmlns="http://www.w3.org/2000/svg">
<path d="M10 2.03158C12.6667 2.03158 13 2.03158 14.0833 2.11491C16.8333 2.19824 18.0833 3.53158 18.1667 6.19824C18.25 7.28158 18.25 7.53158 18.25 10.1982C18.25 12.8649 18.25 13.1982 18.1667 14.1982C18.0833 16.8649 16.75 18.1982 14.0833 18.2816C13 18.3649 12.75 18.3649 10 18.3649C7.33333 18.3649 7 18.3649 6 18.2816C3.25 18.1982 2 16.8649 1.91667 14.1982C1.83333 13.1149 1.83333 12.8649 1.83333 10.1982C1.83333 7.53158 1.83333 7.19824 1.91667 6.19824C2 3.53158 3.33333 2.19824 6 2.11491C7 2.03158 7.33333 2.03158 10 2.03158ZM10 0.198242C7.25 0.198242 6.91667 0.198242 5.91667 0.281576C2.25 0.448242 0.25 2.44824 0.0833333 6.11491C0 7.11491 0 7.44824 0 10.1982C0 12.9482 0 13.2816 0.0833333 14.2816C0.25 17.9482 2.25 19.9482 5.91667 20.1149C6.91667 20.1982 7.25 20.1982 10 20.1982C12.75 20.1982 13.0833 20.1982 14.0833 20.1149C17.75 19.9482 19.75 17.9482 19.9167 14.2816C20 13.2816 20 12.9482 20 10.1982C20 7.44824 20 7.11491 19.9167 6.11491C19.75 2.44824 17.75 0.448242 14.0833 0.281576C13.0833 0.198242 12.75 0.198242 10 0.198242ZM10 5.03158C7.16667 5.03158 4.83333 7.36491 4.83333 10.1982C4.83333 13.0316 7.16667 15.3649 10 15.3649C12.8333 15.3649 15.1667 13.0316 15.1667 10.1982C15.1667 7.36491 12.8333 5.03158 10 5.03158ZM10 13.5316C8.16667 13.5316 6.66667 12.0316 6.66667 10.1982C6.66667 8.36491 8.16667 6.86491 10 6.86491C11.8333 6.86491 13.3333 8.36491 13.3333 10.1982C13.3333 12.0316 11.8333 13.5316 10 13.5316ZM15.3333 3.69824C14.6667 3.69824 14.1667 4.19824 14.1667 4.86491C14.1667 5.53158 14.6667 6.03158 15.3333 6.03158C16 6.03158 16.5 5.53158 16.5 4.86491C16.5 4.19824 16 3.69824 15.3333 3.69824Z" fill="#FAF1E9"/>
</svg>
