<svg width="32" height="32" viewBox="0 0 32 32" fill="none" xmlns="http://www.w3.org/2000/svg">
<path d="M30.8247 29.0584L30.8233 29.057L24.5055 22.7397C26.6891 20.1547 27.8128 16.8347 27.6439 13.4493C27.4711 9.986 25.9588 6.7254 23.4266 4.35615C20.8944 1.9869 17.5404 0.694477 14.073 0.75183C10.6056 0.809183 7.29624 2.21182 4.84378 4.66352C2.39132 7.11522 0.987792 10.424 0.929617 13.8912C0.871443 17.3584 2.16317 20.7124 4.532 23.245C6.90083 25.7776 10.1613 27.2904 13.6248 27.4641C17.0104 27.6338 20.3309 26.5109 22.9166 24.328L29.2348 30.6457L29.2363 30.6472C29.4475 30.855 29.7324 30.9709 30.0287 30.9696C30.325 30.9684 30.6089 30.8501 30.8184 30.6405C31.028 30.431 31.1462 30.1471 31.1474 29.8508C31.1485 29.5544 31.0325 29.2696 30.8247 29.0584ZM3.20582 14.1317C3.20588 11.9358 3.85709 9.78932 5.07712 7.96355C6.2972 6.1377 8.03135 4.71462 10.0603 3.87427C12.0892 3.03392 14.3218 2.81405 16.4757 3.24246C18.6296 3.67086 20.6081 4.72831 22.1609 6.28106C23.7138 7.83382 24.7713 9.81215 25.1998 11.9659C25.6282 14.1196 25.4083 16.352 24.5679 18.3808C23.7275 20.4096 22.3043 22.1436 20.4783 23.3636C18.6524 24.5835 16.5058 25.2347 14.3097 25.2347C11.3658 25.2314 8.54341 24.0606 6.46174 21.9791C4.38007 19.8975 3.20914 17.0754 3.20582 14.1317Z" fill="#DC8962" stroke="#DC8962" stroke-width="0.5"/>
<line x1="14.7031" y1="9.42969" x2="14.7031" y2="19.3175" stroke="#DC8962" stroke-width="2" stroke-linecap="round" stroke-linejoin="round"/>
<line x1="9.60742" y1="14.2227" x2="19.4953" y2="14.2227" stroke="#DC8962" stroke-width="2" stroke-linecap="round" stroke-linejoin="round"/>
</svg>
