<svg width="80" height="80" viewBox="0 0 80 80" fill="none" xmlns="http://www.w3.org/2000/svg">
<circle cx="40" cy="40" r="40" fill="#FAF1E9"/>
<path d="M28.554 29.74C29.2089 29.74 29.7396 29.2093 29.7396 28.5544C29.7396 22.4204 34.7298 17.4302 40.8638 17.4302C42.2563 17.4302 43.6134 17.6837 44.8979 18.1841C46.3267 18.7396 47.1869 16.531 45.7584 15.9742C44.1985 15.3668 42.5517 15.0588 40.8638 15.0588C33.8058 15.0588 27.9957 20.5055 27.4159 27.4163C20.5051 27.9961 15.0586 33.8062 15.0586 40.8642C15.0586 48.3056 21.1126 54.3596 28.554 54.3596H30.2634C32.2565 57.6345 35.9492 59.3218 39.6781 59.5858V63.8936C39.6781 65.4265 42.0495 65.4265 42.0495 63.8936V59.5857C45.7796 59.321 49.4727 57.6315 51.4641 54.3597H53.1737C60.615 54.3597 66.669 48.3057 66.669 40.8644C66.669 33.8059 61.2221 27.9955 54.3108 27.4163C54.0841 24.7604 53.0704 22.2049 51.3994 20.1202C50.4406 18.9239 48.5902 20.407 49.549 21.6032C51.1446 23.5939 51.988 25.9976 51.988 28.5547C51.988 29.2096 52.5187 29.7403 53.1737 29.7403C59.3075 29.7403 64.2977 34.7305 64.2977 40.8645C64.2977 46.9984 59.3075 51.9886 53.1737 51.9886H52.5227C53.0287 50.3441 53.1767 48.5098 52.9448 46.5347C52.882 46.001 52.4683 45.5762 51.9365 45.4995C51.7942 45.4791 48.8043 45.0645 45.8732 45.9494C44.5 42.8868 41.7064 40.7719 41.5739 40.6728C41.1528 40.3582 40.5751 40.3582 40.154 40.6728C40.0215 40.7719 37.2278 42.8868 35.8548 45.9494C32.9238 45.0643 29.9339 45.479 29.7915 45.4995C29.2597 45.5762 28.8461 46.001 28.7832 46.5347C28.5511 48.5098 28.6991 50.344 29.2051 51.9886H28.5543C22.4204 51.9886 17.4302 46.9984 17.4302 40.8645C17.4299 34.7302 22.4201 29.74 28.554 29.74ZM31.0597 47.772C32.2328 47.7205 34.309 47.7706 36.0734 48.5522C36.8408 48.7912 37.3802 48.5403 37.6919 47.7995C38.2832 45.7684 39.9162 44.044 40.8652 43.1751C41.8136 44.0408 43.4411 45.758 44.0355 47.7995C44.3473 48.5402 44.8868 48.7911 45.654 48.5522C47.4186 47.7708 49.4945 47.7205 50.6678 47.772C50.9287 53.6202 46.4829 57.2591 40.8635 57.2597C35.1916 57.2595 30.7983 53.6335 31.0597 47.772Z" fill="#EDBDBA"/>
</svg>
